<svg width="138" height="18" viewBox="0 0 138 18" xmlns="http://www.w3.org/2000/svg">
    <path d="M130.99 17.7602C126.79 17.7602 123.406 15.4562 123.094 11.1602H125.902C126.238 13.7042 128.038 15.2642 130.894 15.2642C133.414 15.2642 135.094 14.2322 135.094 12.5522C135.094 11.0882 133.894 10.2002 131.806 10.2002H129.766V7.75223H131.806C133.558 7.75223 134.734 6.84023 134.734 5.42424C134.734 3.79223 133.126 2.73624 130.846 2.73624C128.278 2.73624 126.526 4.12823 126.19 6.38423H123.382C123.91 2.28023 127.126 0.240234 130.966 0.240234C134.662 0.240234 137.614 2.08823 137.614 5.13623C137.614 6.81623 136.726 8.11223 135.262 8.85623C136.918 9.60023 137.998 11.0162 137.998 12.8642C137.998 15.8642 135.022 17.7602 130.99 17.7602Z" fill="currentColor" />
    <path d="M112.177 17.7602C107.161 17.7602 103.417 14.0162 103.417 9.00023C103.417 3.98423 107.161 0.240234 112.177 0.240234C117.193 0.240234 120.937 3.98423 120.937 9.00023C120.937 14.0162 117.193 17.7602 112.177 17.7602ZM112.177 15.0722C115.537 15.0722 118.033 12.4802 118.033 9.00023C118.033 5.52023 115.537 2.92823 112.177 2.92823C108.817 2.92823 106.345 5.52023 106.345 9.00023C106.345 12.4802 108.817 15.0722 112.177 15.0722Z" fill="currentColor" />
    <path d="M87.4641 17.4001V0.600098H94.7361C98.2641 0.600098 100.448 2.3041 100.448 5.0881C100.448 6.6961 99.7521 7.9201 98.4321 8.6881V8.8561C100.088 9.6241 101.024 11.0161 101.024 12.7921C101.024 15.6001 98.7681 17.4001 95.312 17.4001H87.4641ZM90.3201 7.6801H94.7361C96.5121 7.6801 97.592 6.7921 97.592 5.4001C97.592 3.9841 96.5121 3.0961 94.7361 3.0961H90.3201V7.6801ZM90.3201 14.9041H95.216C97.04 14.9041 98.1441 13.9921 98.1441 12.5521C98.1441 11.0881 96.992 10.2001 95.216 10.2001H90.3201V14.9041Z" fill="currentColor" />
    <path d="M74.7478 17.7602C69.7318 17.7602 65.9878 14.0162 65.9878 9.00023C65.9878 3.98423 69.7318 0.240234 74.7478 0.240234C79.7638 0.240234 83.5078 3.98423 83.5078 9.00023C83.5078 14.0162 79.7638 17.7602 74.7478 17.7602ZM74.7478 15.0722C78.1078 15.0722 80.6038 12.4802 80.6038 9.00023C80.6038 5.52023 78.1078 2.92823 74.7478 2.92823C71.3878 2.92823 68.9158 5.52023 68.9158 9.00023C68.9158 12.4802 71.3878 15.0722 74.7478 15.0722Z" fill="currentColor" />
    <path d="M51.1125 17.4001V0.600098H57.1125C61.1445 0.600098 63.5925 2.5921 63.5925 5.8801C63.5925 9.1441 61.1445 11.1601 57.1125 11.1601H53.9925V17.4001H51.1125ZM53.9925 8.8081H57.1365C59.3685 8.8081 60.7125 7.6801 60.7125 5.9281C60.7125 4.1521 59.3685 3.0481 57.1365 3.0481H53.9925V8.8081Z" fill="currentColor" />
    <path d="M35.8547 17.4001V0.600098H46.6787V3.1441H38.6867V7.7281H44.3027V10.2721H38.6867V14.8561H47.5187V17.4001H35.8547Z" fill="currentColor" />
    <path d="M18.4641 17.4001V0.600098H25.7361C29.2641 0.600098 31.4481 2.3041 31.4481 5.0881C31.4481 6.6961 30.7521 7.9201 29.4321 8.6881V8.8561C31.0881 9.6241 32.0241 11.0161 32.0241 12.7921C32.0241 15.6001 29.7681 17.4001 26.3121 17.4001H18.4641ZM21.3201 7.6801H25.7361C27.5121 7.6801 28.5921 6.7921 28.5921 5.4001C28.5921 3.9841 27.5121 3.0961 25.7361 3.0961H21.3201V7.6801ZM21.3201 14.9041H26.2161C28.0401 14.9041 29.1441 13.9921 29.1441 12.5521C29.1441 11.0881 27.9921 10.2001 26.2161 10.2001H21.3201V14.9041Z" fill="currentColor" />
    <path d="M7.896 17.7602C3.696 17.7602 0.312 15.4562 0 11.1602H2.808C3.144 13.7042 4.944 15.2642 7.8 15.2642C10.32 15.2642 12 14.2322 12 12.5522C12 11.0882 10.8 10.2002 8.712 10.2002H6.672V7.75223H8.712C10.464 7.75223 11.64 6.84023 11.64 5.42424C11.64 3.79223 10.032 2.73624 7.752 2.73624C5.184 2.73624 3.432 4.12823 3.096 6.38423H0.288C0.816 2.28023 4.032 0.240234 7.872 0.240234C11.568 0.240234 14.52 2.08823 14.52 5.13623C14.52 6.81623 13.632 8.11223 12.168 8.85623C13.824 9.60023 14.904 11.0162 14.904 12.8642C14.904 15.8642 11.928 17.7602 7.896 17.7602Z" fill="currentColor" />
</svg>