<svg xmlns="http://www.w3.org/2000/svg">

  <symbol id="pet-truck" viewBox="0 0 120 120" fill="none">
    <path d="M90.1705 55.0778H65.9062C65.66 55.0778 65.4162 55.0294 65.1886 54.9352C64.9611 54.841 64.7544 54.7029 64.5803 54.5287C64.4062 54.3546 64.268 54.1479 64.1738 53.9204C64.0796 53.6929 64.0312 53.449 64.0313 53.2028V40.6582C64.0312 40.412 64.0796 40.1681 64.1738 39.9406C64.268 39.7131 64.4062 39.5064 64.5803 39.3322C64.7544 39.1581 64.9611 39.02 65.1886 38.9258C65.4162 38.8316 65.66 38.7831 65.9062 38.7832H79.6227C79.8901 38.7834 80.1543 38.8406 80.3978 38.9511C80.6412 39.0617 80.8583 39.2229 81.0344 39.4241L91.7232 51.6573C91.9839 51.9556 92.1531 52.3227 92.2108 52.7146C92.2684 53.1066 92.212 53.5068 92.0483 53.8675C91.8845 54.2283 91.6203 54.5342 91.2874 54.7488C90.9544 54.9634 90.5666 55.0776 90.1705 55.0778ZM67.7812 51.3278H86.4553L78.7712 42.5332H67.7812V51.3278Z" fill="#DA8F75" />
    <path d="M109.265 53.6464L105.989 52.5441L99.9511 50.8925L85.6332 34.2775C85.1883 33.759 84.6366 33.3429 84.0159 33.0575C83.3951 32.7721 82.7201 32.6242 82.0369 32.624H16.8047C15.6312 32.6266 14.4924 33.0225 13.5703 33.7484C12.6482 34.4743 11.996 35.4884 11.7181 36.6286L8.26195 50.5208C7.96237 51.724 7.8108 52.9594 7.81058 54.1993V73.7184C7.8051 75.2439 8.40495 76.7092 9.47854 77.7929C10.5521 78.8766 12.0118 79.4902 13.5372 79.499H22.3376C22.6856 81.6951 23.8057 83.6949 25.4965 85.1389C27.1872 86.5829 29.3377 87.3762 31.5612 87.3762C33.7847 87.3762 35.9352 86.5829 37.626 85.1389C39.3167 83.6949 40.4368 81.6951 40.7848 79.499H84.2126C84.5606 81.6951 85.6807 83.6949 87.3715 85.1389C89.0622 86.5829 91.2127 87.3762 93.4362 87.3762C95.6597 87.3762 97.8102 86.5829 99.501 85.1389C101.192 83.6949 102.312 81.6951 102.66 79.499H106.46C107.985 79.4902 109.445 78.8766 110.518 77.7929C111.592 76.7092 112.192 75.2439 112.186 73.7184V57.7389C112.188 56.8369 111.908 55.9569 111.384 55.2228C110.86 54.4887 110.119 53.9373 109.265 53.6464ZM31.5612 83.6262C30.4487 83.6262 29.3612 83.2963 28.4361 82.6782C27.5111 82.0602 26.7901 81.1817 26.3644 80.1538C25.9386 79.126 25.8272 77.995 26.0443 76.9039C26.2613 75.8127 26.7971 74.8104 27.5837 74.0238C28.3704 73.2371 29.3727 72.7014 30.4638 72.4843C31.555 72.2673 32.686 72.3787 33.7138 72.8044C34.7416 73.2302 35.6201 73.9511 36.2382 74.8762C36.8563 75.8012 37.1862 76.8887 37.1862 78.0012C37.1846 79.4926 36.5914 80.9224 35.5369 81.9769C34.4823 83.0315 33.0526 83.6246 31.5612 83.6262ZM93.4362 83.6262C92.3237 83.6262 91.2362 83.2963 90.3111 82.6782C89.3861 82.0602 88.6651 81.1817 88.2394 80.1538C87.8136 79.126 87.7022 77.995 87.9193 76.9039C88.1363 75.8127 88.6721 74.8104 89.4587 74.0238C90.2454 73.2371 91.2477 72.7014 92.3388 72.4843C93.43 72.2673 94.561 72.3787 95.5888 72.8044C96.6166 73.2302 97.4951 73.9511 98.1132 74.8762C98.7313 75.8012 99.0612 76.8887 99.0612 78.0012C99.0596 79.4926 98.4664 80.9224 97.4119 81.9769C96.3573 83.0315 94.9276 83.6246 93.4362 83.6262ZM108.436 73.7184C108.442 74.2495 108.238 74.7615 107.867 75.1421C107.497 75.5227 106.991 75.7409 106.46 75.749H102.507C102.011 73.7175 100.847 71.9112 99.2027 70.6197C97.558 69.3282 95.5274 68.6262 93.4362 68.6262C91.345 68.6262 89.3144 69.3282 87.6697 70.6197C86.025 71.9112 84.8615 73.7175 84.3656 75.749H40.6318C40.1359 73.7175 38.9724 71.9112 37.3277 70.6197C35.683 69.3282 33.6524 68.6262 31.5612 68.6262C29.47 68.6262 27.4394 69.3282 25.7947 70.6197C24.15 71.9112 22.9865 73.7175 22.4906 75.749H13.5372C13.0061 75.7409 12.4999 75.5227 12.1294 75.1421C11.7589 74.7615 11.5544 74.2495 11.5606 73.7184V54.1993C11.5608 53.2649 11.6748 52.334 11.9003 51.4271L15.3564 37.5349C15.4335 37.2075 15.618 36.9152 15.8805 36.7048C16.143 36.4945 16.4683 36.378 16.8047 36.374H82.037C82.1806 36.3748 82.3224 36.4064 82.4527 36.4667C82.583 36.5271 82.6988 36.6147 82.7923 36.7238L97.1103 53.3388C97.6037 53.9137 98.2586 54.3271 98.9898 54.5253L104.897 56.1293L108.063 57.1986C108.174 57.2383 108.269 57.3117 108.336 57.4086C108.403 57.5055 108.438 57.621 108.436 57.7388L108.436 73.7184Z" fill="#DA8F75" />
    <path d="M42.3081 49.3759C42.0905 49.3761 41.8733 49.3571 41.659 49.3191C39.1102 48.8687 37.5684 45.9353 38.1498 42.6394C38.373 41.2638 38.9943 39.9837 39.9369 38.9572C40.4031 38.4262 40.995 38.0206 41.6584 37.7775C42.3218 37.5344 43.0356 37.4616 43.7345 37.5656C46.2824 38.016 47.8241 40.9494 47.2437 44.2434C47.0205 45.6196 46.3992 46.9003 45.4566 47.9275C45.0576 48.37 44.5726 48.7266 44.0313 48.9756C43.49 49.2246 42.9037 49.3608 42.3081 49.3759ZM43.0771 41.257C42.8501 41.257 42.0801 41.9454 41.843 43.2914C41.7214 43.6892 41.7006 44.1111 41.7826 44.5189C41.8646 44.9268 42.0467 45.3078 42.3127 45.6278H42.3164C42.5435 45.6278 43.3134 44.9375 43.5505 43.5916C43.6718 43.1941 43.6924 42.7726 43.6105 42.3651C43.5285 41.9575 43.3465 41.5768 43.0809 41.2571L43.0771 41.257Z" fill="#DA8F75" />
    <path d="M48.9959 54.8975C48.604 54.8983 48.2151 54.8301 47.8468 54.696C47.271 54.4695 46.7608 54.1028 46.3624 53.6293C45.964 53.1558 45.6901 52.5904 45.5653 51.9842C45.3253 50.8418 45.4097 49.655 45.809 48.5581C46.2083 47.4611 46.9066 46.4977 47.8249 45.777C48.3023 45.3782 48.876 45.1118 49.4887 45.0045C50.1014 44.8971 50.7315 44.9525 51.3161 45.1652C51.9006 45.3778 52.4191 45.7403 52.8196 46.2162C53.2201 46.6921 53.4886 47.2649 53.5982 47.8772C53.8538 49.0183 53.7695 50.2094 53.3556 51.3031C52.9696 52.4074 52.2684 53.3744 51.3386 54.0845C50.6643 54.5982 49.8435 54.883 48.9959 54.8975ZM49.9727 48.855C49.6872 49.1305 49.4684 49.4674 49.3327 49.8403C49.1971 50.2131 49.1482 50.6119 49.19 51.0065C49.4833 50.7375 49.7038 50.3986 49.8308 50.0213L49.8317 50.0195C49.9768 49.6496 50.0254 49.2488 49.9727 48.855Z" fill="#DA8F75" />
    <path d="M26.7606 54.8963C25.9127 54.882 25.0915 54.5972 24.4169 54.0833C23.4874 53.3732 22.7865 52.4062 22.4009 51.3019C21.8606 50.2172 21.7717 48.9627 22.1536 47.8126C22.5354 46.6625 23.357 45.7104 24.4388 45.1642C26.5574 44.3915 28.9753 45.8857 29.9476 48.5572C30.4876 49.642 30.5764 50.8966 30.1943 52.0466C29.8123 53.1967 28.9906 54.1488 27.9087 54.6949C27.5408 54.8289 27.1522 54.897 26.7606 54.8963ZM25.7829 48.8538C25.7303 49.2483 25.7788 49.6496 25.9239 50.0202C26.0504 50.3977 26.2719 50.7367 26.5657 51.0053C26.608 50.6107 26.5594 50.2117 26.4237 49.8388C26.2881 49.4659 26.0689 49.129 25.7829 48.8538Z" fill="#DA8F75" />
    <path d="M33.4517 49.3761C32.856 49.361 32.2697 49.2248 31.7284 48.9758C31.1871 48.7268 30.7022 48.3702 30.3032 47.9278C29.3604 46.9 28.7394 45.6186 28.517 44.2418C27.9356 40.9496 29.4774 38.0163 32.0262 37.5658C32.7249 37.4628 33.4382 37.5361 34.1014 37.7792C34.7645 38.0222 35.3563 38.4273 35.8229 38.9574C36.7655 39.9839 37.3868 41.264 37.61 42.6397C38.1913 45.9356 36.6496 48.8689 34.1008 49.3194C33.8865 49.3573 33.6693 49.3763 33.4517 49.3761ZM32.6808 41.2572H32.678C32.4129 41.5772 32.2314 41.958 32.1497 42.3655C32.0681 42.773 32.0889 43.1943 32.2102 43.5917C32.4473 44.9357 33.2154 45.628 33.4452 45.628H33.448C33.7135 45.3078 33.8953 44.9267 33.9772 44.5189C34.059 44.1111 34.0382 43.6894 33.9167 43.2916C33.6686 41.8834 32.8886 41.2572 32.6808 41.2572Z" fill="#DA8F75" />
    <path d="M44.0976 67.732C43.3963 67.7329 42.6971 67.6537 42.0138 67.4958C41.1208 67.2532 40.2662 66.8865 39.4751 66.4063C39.0043 66.0934 38.4812 65.8676 37.9306 65.7398C37.3803 65.8676 36.8573 66.0927 36.3861 66.4045C35.5954 66.8858 34.7407 67.2532 33.8473 67.4957C32.561 67.8648 31.1984 67.8755 29.9065 67.5266C28.6145 67.1778 27.4424 66.4827 26.5167 65.5163C25.6615 64.4473 25.2383 63.0963 25.3309 61.7304C25.4234 60.3645 26.025 59.0829 27.0166 58.139C27.5558 57.6736 28.138 57.2604 28.7552 56.9049C29.3371 56.614 29.8519 56.2049 30.2667 55.7037C30.5377 55.225 30.7548 54.7178 30.914 54.1913C31.1782 53.3272 31.5585 52.503 32.0446 51.7413C32.7285 50.8445 33.6242 50.1315 34.6515 49.6662C35.6787 49.2009 36.8055 48.9979 37.9305 49.0753C39.0887 48.9527 40.2585 49.1424 41.3185 49.6248C42.3785 50.1071 43.29 50.8645 43.9584 51.8182C44.3908 52.5598 44.7233 53.3552 44.9472 54.1839C45.0851 54.7397 45.3029 55.2726 45.5935 55.766C45.9924 56.3134 46.5312 56.7435 47.1535 57.0111C47.7626 57.314 48.3308 57.693 48.8445 58.139C49.836 59.0826 50.4375 60.3637 50.5303 61.7293C50.623 63.0949 50.2001 64.4456 49.3453 65.5145C48.6934 66.2547 47.8831 66.8384 46.9745 67.2223C46.066 67.6062 45.0827 67.7804 44.0976 67.732ZM37.9306 61.9898C39.1282 62.0712 40.2845 62.461 41.2868 63.1214C41.7805 63.4279 42.3108 63.6709 42.8652 63.8447C43.4664 64.0403 44.1073 64.0809 44.7284 63.9628C45.3496 63.8446 45.9308 63.5716 46.4183 63.169C46.668 62.8423 46.7957 62.4386 46.7793 62.0277C46.7629 61.6168 46.6035 61.2245 46.3286 60.9187C46.0349 60.6798 45.7141 60.4764 45.3728 60.3126C44.2336 59.7683 43.2518 58.9428 42.52 57.9139C41.999 57.1092 41.6096 56.2265 41.3664 55.2992C41.2307 54.7801 41.0334 54.2791 40.7787 53.8069C40.2724 52.9957 38.9504 52.8254 37.9305 52.8254C37.4178 52.7779 36.9009 52.846 36.418 53.0248C35.935 53.2035 35.4983 53.4883 35.14 53.8581C34.8471 54.3506 34.6167 54.8778 34.4543 55.4273C34.2037 56.2354 33.856 57.0101 33.4188 57.7345C32.714 58.7231 31.7883 59.5338 30.7153 60.102C30.2975 60.3397 29.9014 60.6136 29.5315 60.9205C29.2568 61.2265 29.0977 61.6189 29.0817 62.0298C29.0656 62.4407 29.1936 62.8444 29.4436 63.1709C29.9312 63.5732 30.5126 63.846 31.1337 63.9637C31.7548 64.0815 32.3956 64.0406 32.9967 63.8447C33.5507 63.6697 34.0809 63.4268 34.5751 63.1214C35.5767 62.4601 36.733 62.0701 37.9306 61.9898Z" fill="#DA8F75" />
  </symbol>

  <symbol id="pet-discussion" viewBox="0 0 120 120" fill="none">
    <path d="M104.686 97.9028C107.065 95.8975 108.991 93.4103 110.338 90.6056C111.685 87.8009 112.422 84.7425 112.5 81.6321C112.5 73.7766 107.704 66.4272 99.5695 61.6357C103.058 56.6487 104.951 50.7211 105 44.6356C105 24.1589 83.1308 7.5 56.25 7.5C29.3692 7.5 7.5 24.1589 7.5 44.6356C7.61059 49.1984 8.68419 53.6864 10.6504 57.8053C12.6166 61.9242 15.4311 65.5811 18.9094 68.5364C19.4972 70.1642 17.6899 78.8287 12.1684 85.4095C11.804 85.838 11.5788 86.3673 11.5227 86.927C11.4666 87.4867 11.5823 88.0501 11.8543 88.5424C12.0962 88.9849 12.453 89.3538 12.8871 89.6104C13.3212 89.8669 13.8165 90.0015 14.3207 90C14.4493 90.0005 14.5778 89.992 14.7052 89.9744C23.7113 89.0041 32.3195 85.7459 39.711 80.5097C40.0507 80.2734 40.4215 80.0153 40.687 79.845C42.1247 80.2125 43.5861 80.5126 45.0589 80.7755C45.0463 81.0617 45 81.3474 45 81.6321C45 95.6287 60.1401 107.014 78.75 107.014C82.281 107.02 85.8 106.604 89.2319 105.773C89.3582 105.857 89.5029 105.959 89.6695 106.073C94.7926 109.624 100.728 111.828 106.927 112.48C107.039 112.494 107.151 112.501 107.264 112.5C107.717 112.502 108.163 112.381 108.552 112.149C108.942 111.917 109.261 111.584 109.476 111.185C109.715 110.746 109.814 110.243 109.76 109.746C109.706 109.248 109.502 108.779 109.174 108.4C106.616 105.457 105.046 101.785 104.686 97.9028ZM37.5696 77.4316C31.3131 81.8789 24.0942 84.785 16.5015 85.9131C21.3126 79.0613 24.6057 68.6151 21.5323 65.852C18.4158 63.2436 15.8879 60.0039 14.1155 56.3467C12.343 52.6895 11.3664 48.698 11.25 44.6356C11.25 26.2262 31.4374 11.25 56.25 11.25C81.0626 11.25 101.25 26.2262 101.25 44.6356C101.25 63.045 81.0626 78.0212 56.25 78.0212C51.1263 78.0324 46.023 77.3763 41.0687 76.0694C39.9619 75.7691 39.1095 76.3604 37.5696 77.4316ZM91.7816 102.973C90.672 102.217 89.9368 101.724 88.9288 101.981C85.6044 102.84 82.1838 103.272 78.75 103.264C62.2082 103.264 48.75 93.5596 48.75 81.6321C48.75 81.5306 48.7691 81.4286 48.7711 81.3268C51.2533 81.62 53.7505 81.7684 56.25 81.7712C73.4628 81.7712 88.6091 74.9343 97.2859 64.6445C104.49 68.7506 108.75 75.0151 108.75 81.6321C108.663 84.2624 108.013 86.8435 106.844 89.2012C105.674 91.5588 104.013 93.6383 101.971 95.2991C99.7668 97.2418 101.421 103.471 104.45 108.274C99.8923 107.448 95.5694 105.639 91.7816 102.973Z" fill="#DA8F75" />
    <path d="M63.946 37.0544C63.644 37.0538 63.3425 37.0268 63.0451 36.9738C62.0697 36.7627 61.1621 36.312 60.4043 35.6624C59.6465 35.0129 59.0624 34.1848 58.7046 33.2531C57.8868 31.2697 57.6676 29.0902 58.0738 26.9836C58.9482 22.0269 62.5096 18.656 66.1626 19.2968C67.1381 19.508 68.0456 19.9587 68.8034 20.6082C69.5612 21.2578 70.1453 22.0858 70.5031 23.0175C71.3216 25.0008 71.5412 27.1804 71.1348 29.2871C70.3327 33.8354 67.2739 37.0544 63.946 37.0544ZM65.2854 22.97C63.9689 22.97 62.2578 24.8523 61.7671 27.6355C61.4946 29.0103 61.6224 30.4345 62.1351 31.7389C62.3622 32.2516 62.8657 33.136 63.6961 33.2825C65.0465 33.5278 66.9233 31.5814 67.4415 28.6353C67.7141 27.2603 67.5861 25.8361 67.0725 24.5318C66.8464 24.0192 66.342 23.1348 65.5116 22.9883C65.4369 22.9757 65.3612 22.9695 65.2854 22.97Z" fill="#DA8F75" />
    <path d="M75.5454 46.6318C75.0245 46.6328 74.5075 46.5417 74.0183 46.3626C71.074 45.2896 69.8819 41.3858 71.3037 37.4783C71.8797 35.8188 72.929 34.3643 74.3223 33.2944C74.9828 32.7641 75.7648 32.4065 76.598 32.2537C77.4311 32.1009 78.2892 32.1578 79.0949 32.4191C82.0383 33.4903 83.2303 37.3923 81.8085 41.3016C81.4185 42.715 80.6121 43.9787 79.4956 44.929C78.3791 45.8794 77.0029 46.4726 75.5454 46.6318ZM77.5696 35.9036C77.1908 35.9351 76.8304 36.0806 76.536 36.3211C75.7453 36.9543 75.1525 37.8007 74.8276 38.7601C74.0622 40.8657 74.597 42.5833 75.3019 42.8397C75.9949 43.0887 77.5302 42.0908 78.2837 40.0198C79.05 37.9142 78.5154 36.1984 77.8112 35.9421C77.7334 35.9158 77.6517 35.9028 77.5696 35.9036Z" fill="#DA8F75" />
    <path d="M36.9575 46.6316C35.4999 46.4725 34.1237 45.8794 33.0071 44.929C31.8906 43.9786 31.0852 42.7148 30.6953 41.3014C29.2735 37.392 30.4646 33.4901 33.4098 32.4189C34.2151 32.157 35.073 32.0998 35.906 32.2526C36.739 32.4054 37.5207 32.7634 38.1806 33.2942C39.5738 34.3639 40.6229 35.8185 41.1982 37.4781C42.6209 41.3856 41.4288 45.2894 38.4864 46.3624C37.9964 46.5407 37.4789 46.6318 36.9575 46.6316ZM34.2191 40.0197C34.9744 42.0924 36.518 43.072 37.2028 42.8395C37.906 42.5831 38.4406 40.8656 37.6743 38.7599C37.3501 37.8004 36.7575 36.9539 35.9669 36.3209C35.7979 36.1643 35.5951 36.0487 35.3743 35.9829C35.1535 35.9172 34.9205 35.9032 34.6934 35.9419C33.9875 36.1982 33.4528 37.9139 34.2191 40.0197Z" fill="#DA8F75" />
    <path d="M48.5536 37.0548C45.2257 37.0548 42.1669 33.8358 41.3649 29.2874C40.9584 27.1807 41.178 25.0011 41.9966 23.0179C42.3543 22.0863 42.9383 21.2584 43.6959 20.6088C44.4535 19.9593 45.3609 19.5085 46.3362 19.2972C49.9947 18.6545 53.5515 22.0273 54.4258 26.984C54.8321 29.0906 54.6128 31.27 53.795 33.2535C53.4372 34.1854 52.8529 35.0134 52.095 35.663C51.337 36.3126 50.4293 36.7632 49.4536 36.9742C49.1565 37.0272 48.8554 37.0542 48.5536 37.0548ZM47.2133 22.9703C47.1376 22.9699 47.0619 22.9761 46.9872 22.9886C46.1577 23.1351 45.6532 24.0195 45.4272 24.5322C44.9137 25.8364 44.7856 27.2607 45.0582 28.6356C45.5782 31.5818 47.4788 33.5263 48.8027 33.2828C49.634 33.1363 50.1376 32.2519 50.3646 31.7392C50.8773 30.4348 51.0051 29.0107 50.7326 27.6358C50.2419 24.8526 48.5308 22.9703 47.2133 22.9703Z" fill="#DA8F75" />
    <path d="M67.0601 68.8987C65.9406 68.8991 64.8247 68.772 63.734 68.5198C62.3088 68.124 60.9454 67.5324 59.6827 66.762C58.6798 66.0787 57.538 65.626 56.3392 65.4364C55.1397 65.626 53.9971 66.0794 52.9939 66.7639C51.7313 67.5327 50.3687 68.1236 48.9445 68.5198C45.46 69.3292 40.4036 69.0435 37.6149 65.5627C36.3712 63.974 35.7566 61.9827 35.8887 59.9694C36.0208 57.9561 36.8902 56.0622 38.3308 54.6496C39.2038 53.9001 40.1459 53.2349 41.1442 52.6629C42.3385 52.0638 43.3838 51.2055 44.2039 50.1507C44.7356 49.2314 45.1595 48.2538 45.4674 47.2375C45.8854 45.8521 46.4904 44.5301 47.2655 43.308C48.3292 41.9415 49.7142 40.8592 51.2973 40.1573C52.8803 39.4554 54.6124 39.1559 56.3393 39.2852C61.8929 39.2852 64.4563 41.5228 65.6291 43.3978C66.3147 44.5839 66.8411 45.8553 67.1947 47.1789C67.4722 48.2791 67.9132 49.3314 68.503 50.3008C69.318 51.4278 70.4156 52.3202 71.6853 52.888C72.6421 53.3613 73.5359 53.9524 74.3459 54.6476C75.7868 56.0603 76.6565 57.9545 76.7889 59.968C76.9213 61.9815 76.3071 63.9733 75.0637 65.5625C74.0651 66.6831 72.8273 67.5648 71.4419 68.1423C70.0565 68.7198 68.5589 68.9783 67.0601 68.8987ZM56.3392 61.6862C58.183 61.8331 59.9583 62.4502 61.4955 63.4788C62.46 64.0763 63.4993 64.5436 64.5863 64.8686C67.1983 65.4747 70.5464 65.2018 72.1367 63.2188C72.7933 62.3795 73.124 61.3309 73.0678 60.2667C73.0116 59.2025 72.5723 58.1946 71.8309 57.429C71.2414 56.9387 70.5946 56.5219 69.9046 56.1876C68.1176 55.3455 66.5767 54.0587 65.4295 52.4504C64.6118 51.1686 63.9995 49.7667 63.6149 48.2957C63.349 47.281 62.9572 46.3036 62.4486 45.3862C61.4744 43.8262 59.4182 43.0351 56.3392 43.0351C55.2257 42.9455 54.1064 43.1148 53.0691 43.5296C52.0318 43.9445 51.1046 44.5937 50.3599 45.4265C49.7798 46.3796 49.3253 47.4037 49.0076 48.4733C48.6086 49.7721 48.0537 51.0177 47.3551 52.1831C46.2421 53.7214 44.787 54.98 43.1044 55.8598C42.3055 56.3141 41.5495 56.8399 40.8458 57.4309C40.1046 58.1962 39.6656 59.204 39.6097 60.2679C39.5538 61.3319 39.8849 62.3801 40.5418 63.2188C42.1312 65.2019 45.4793 65.4729 48.0922 64.8686C49.1785 64.5433 50.2174 64.0767 51.1822 63.4807C52.7191 62.4506 54.4949 61.8327 56.3392 61.6862Z" fill="#DA8F75" />
  </symbol>

  <symbol id="cat-insurance" viewBox="0 0 120 120" fill="none">
    <path d="M68.3826 68.3366C68.1655 68.2201 67.9275 68.1476 67.6823 68.1233C67.4371 68.0991 67.1895 68.1235 66.9538 68.1952C66.718 68.2669 66.4988 68.3845 66.3086 68.5413C66.1185 68.698 65.9612 68.8907 65.8457 69.1084C65.5932 69.4132 65.2708 69.6526 64.906 69.8063C64.5411 69.9599 64.1446 70.0233 63.75 69.991C63.5553 69.9872 63.3611 69.9668 63.1698 69.93C63.2461 69.8513 63.3259 69.7977 63.4003 69.7108C64.1912 68.7735 64.6945 67.6278 64.8497 66.4112C64.8791 66.1255 64.8425 65.8368 64.7427 65.5674C64.6428 65.298 64.4824 65.0552 64.2738 64.8576C63.6984 64.3324 63.0239 63.9275 62.2898 63.6665C61.5558 63.4055 60.777 63.2938 59.9992 63.3378C59.2209 63.293 58.4414 63.4041 57.7066 63.6646C56.9717 63.9251 56.2964 64.3298 55.7201 64.8549C55.5118 65.0524 55.3517 65.2951 55.252 65.5643C55.1523 65.8335 55.1157 66.122 55.1451 66.4076C55.3009 67.6251 55.8055 68.7716 56.5981 69.709C56.673 69.7966 56.7535 69.8508 56.8303 69.9301C56.6389 69.9669 56.4448 69.9873 56.25 69.991C55.8555 70.0233 55.459 69.9599 55.0942 69.8063C54.7293 69.6526 54.407 69.4132 54.1544 69.1084C54.0385 68.8911 53.8809 68.6988 53.6907 68.5425C53.5005 68.3861 53.2814 68.2688 53.0458 68.1971C52.8102 68.1254 52.5628 68.1009 52.3178 68.1248C52.0727 68.1487 51.8347 68.2207 51.6175 68.3366C51.4002 68.4525 51.2079 68.6101 51.0516 68.8003C50.8952 68.9905 50.7778 69.2097 50.7062 69.4452C50.6345 69.6808 50.6099 69.9282 50.6339 70.1733C50.6578 70.4183 50.7298 70.6563 50.8457 70.8735C51.4108 71.7883 52.2093 72.536 53.1591 73.0399C54.1089 73.5439 55.1758 73.7858 56.25 73.741C57.5808 73.7513 58.8851 73.3693 60 72.6428C61.115 73.3693 62.4193 73.7513 63.75 73.741C64.8243 73.7858 65.8912 73.5439 66.841 73.0399C67.7908 72.536 68.5893 71.7883 69.1544 70.8735C69.3883 70.4347 69.4384 69.921 69.2937 69.4453C69.1489 68.9696 68.8212 68.5708 68.3826 68.3366ZM60.6684 67.1226C60.6327 67.173 60.5942 67.2224 60.5521 67.2709C60.4029 67.4502 60.2135 67.5917 59.9992 67.6838C59.7849 67.5912 59.5955 67.4494 59.4462 67.27C59.4041 67.2215 59.3656 67.1721 59.3299 67.1226C59.7749 67.0768 60.2234 67.0768 60.6684 67.1226Z" fill="#DA8F75" />
    <path d="M55.0985 59.7952C54.7657 59.7955 54.4388 59.7073 54.1515 59.5395C53.8641 59.3716 53.6266 59.1303 53.4634 58.8403C53.4267 58.7752 53.3733 58.7211 53.3088 58.6835C53.2443 58.6458 53.171 58.626 53.0963 58.626C53.0216 58.626 52.9482 58.6458 52.8837 58.6835C52.8192 58.7211 52.7659 58.7752 52.7291 58.8403C52.4847 59.2726 52.0786 59.5903 51.6002 59.7235C51.1217 59.8567 50.6099 59.7946 50.1772 59.5509C49.7445 59.3071 49.4262 58.9015 49.2922 58.4233C49.1582 57.945 49.2195 57.4332 49.4625 57C49.8255 56.3556 50.3532 55.8192 50.9918 55.4459C51.6303 55.0727 52.3567 54.876 53.0963 54.876C53.8359 54.876 54.5623 55.0727 55.2008 55.4459C55.8393 55.8192 56.3671 56.3556 56.73 57C56.8906 57.2852 56.9737 57.6074 56.9711 57.9346C56.9685 58.2618 56.8804 58.5826 56.7155 58.8652C56.5505 59.1478 56.3145 59.3823 56.0308 59.5455C55.7472 59.7086 55.4257 59.7947 55.0985 59.7952Z" fill="#DA8F75" />
    <path d="M68.9071 59.7952C68.5743 59.7955 68.2474 59.7073 67.9601 59.5395C67.6727 59.3716 67.4352 59.1303 67.272 58.8403C67.2353 58.7752 67.1819 58.7211 67.1174 58.6835C67.0529 58.6458 66.9796 58.626 66.9049 58.626C66.8302 58.626 66.7568 58.6458 66.6923 58.6835C66.6278 58.7211 66.5745 58.7752 66.5377 58.8403C66.2933 59.2726 65.8872 59.5903 65.4088 59.7235C64.9303 59.8567 64.4185 59.7946 63.9858 59.5509C63.5531 59.3071 63.2348 58.9015 63.1008 58.4233C62.9668 57.945 63.028 57.4332 63.2711 57C63.634 56.3556 64.1618 55.8192 64.8004 55.4459C65.4389 55.0727 66.1653 54.876 66.9049 54.876C67.6445 54.876 68.3709 55.0727 69.0094 55.4459C69.6479 55.8192 70.1757 56.3556 70.5386 57C70.6992 57.2852 70.7823 57.6074 70.7797 57.9346C70.7771 58.2618 70.689 58.5826 70.5241 58.8652C70.3591 59.1478 70.1231 59.3823 69.8394 59.5455C69.5558 59.7086 69.2343 59.7947 68.9071 59.7952Z" fill="#DA8F75" />
    <path d="M105.553 21.3611C105.538 20.2597 105.524 19.2435 105.518 18.3215C105.514 17.5297 105.264 16.7586 104.802 16.115C104.341 15.4714 103.691 14.9871 102.942 14.729C89.1124 10.0059 74.6062 7.56435 59.9921 7.5C45.3843 7.56638 30.8844 10.0079 17.0603 14.729C16.3116 14.9871 15.6617 15.4714 15.2003 16.115C14.7389 16.7586 14.4889 17.5296 14.4849 18.3215C14.4785 19.2434 14.4648 20.2597 14.4501 21.3611C14.2038 39.5508 13.627 82.1466 42.9303 103.097C47.7532 106.717 52.976 109.771 58.4961 112.199C58.973 112.398 59.4846 112.5 60.0013 112.5C60.5179 112.5 61.0295 112.398 61.5064 112.199C67.0265 109.771 72.2493 106.717 77.0722 103.097C106.375 82.1466 105.799 39.5508 105.553 21.3611ZM74.8914 100.046C70.2987 103.509 65.3197 106.427 60.0544 108.742C60.0198 108.753 59.9827 108.753 59.9482 108.742C54.6829 106.427 49.7039 103.509 45.1112 100.046C17.4036 80.2369 17.9612 39.0152 18.2001 21.4123C18.2148 20.3009 18.2285 19.2764 18.2725 18.2776C31.7064 13.69 45.7967 11.3165 59.9921 11.25C68.4488 11.291 76.8818 12.1482 85.1737 13.8098C90.8043 14.9324 96.3492 16.4486 101.768 18.3472C101.774 19.2764 101.788 20.3009 101.802 21.4123C102.041 39.0152 102.599 80.2369 74.8914 100.046Z" fill="#DA8F75" />
    <path d="M96.7423 20.603C92.703 19.3643 88.5639 18.316 84.4376 17.4866C76.4009 15.8743 68.2273 15.0416 60.0305 15C51.8155 15.0396 43.6235 15.8724 35.5686 17.4866C31.4359 18.317 27.2968 19.3643 23.2648 20.6012C22.8851 20.7176 22.5522 20.9515 22.314 21.2692C22.0758 21.5869 21.9445 21.972 21.9392 22.3691C21.753 36.5836 21.2952 72.6471 42.112 92.6632C42.1635 92.721 42.2187 92.7754 42.2773 92.8261C43.8506 94.3321 45.5278 95.7257 47.2965 96.9965C51.0329 99.7883 55.0168 102.233 59.1983 104.299C59.4498 104.418 59.7247 104.48 60.0031 104.48C60.2815 104.48 60.5563 104.418 60.8078 104.299C64.9905 102.233 68.9751 99.7879 72.7115 96.9947C74.4803 95.724 76.1574 94.3305 77.7307 92.8244C77.7868 92.7756 77.8399 92.7233 77.8895 92.6678C98.7112 72.6544 98.2533 36.586 98.067 22.3709C98.0617 21.974 97.9306 21.5889 97.6925 21.2712C97.4545 20.9536 97.1218 20.7196 96.7423 20.603ZM70.5298 93.9441C67.2062 96.4198 63.6856 98.6192 60.0031 100.52C56.3214 98.619 52.8011 96.4202 49.4773 93.9459C48.0977 92.9561 46.7768 91.887 45.5213 90.744C46.7031 86.959 48.6998 83.4789 51.3709 80.5484C56.9928 82.2984 63.0137 82.2985 68.6356 80.5487C71.3066 83.4788 73.3032 86.9585 74.485 90.7432C73.2297 91.8859 71.9091 92.9547 70.5298 93.9441ZM60.004 45.824C71.3758 45.824 80.6281 53.0667 80.6281 61.9684C80.6281 70.8692 71.3758 78.111 60.004 78.111C48.6304 78.111 39.3781 70.8692 39.3781 61.9684C39.3781 53.0667 48.6304 45.824 60.004 45.824ZM40.3064 50.2971V41.5805L46.4414 45.4481C44.1355 46.7037 42.0607 48.3436 40.3064 50.2971ZM79.6997 50.2967C77.9452 48.343 75.8702 46.703 73.564 45.4474L79.6997 41.5778V50.2967ZM77.4288 87.7985C76.2196 84.6388 74.5002 81.6989 72.3391 79.096C79.5296 75.6331 84.3781 69.2617 84.3781 61.9684C84.37 60.138 84.0562 58.3219 83.4497 56.5949V40.9616C83.5233 40.3222 83.4078 39.6753 83.1175 39.1009C82.8272 38.5265 82.3749 38.0498 81.8164 37.7298C81.1638 37.4766 80.4567 37.3966 79.764 37.4975C79.0713 37.5984 78.4165 37.8768 77.8632 38.3057L69.428 43.6235C63.3145 41.5573 56.6914 41.5575 50.578 43.624L42.2245 38.3597C41.6649 37.9126 40.9984 37.6194 40.2907 37.5089C39.5831 37.3984 38.8589 37.4746 38.1897 37.7298C37.6313 38.0498 37.1789 38.5265 36.8886 39.1009C36.5983 39.6753 36.4828 40.3222 36.5564 40.9616V56.5954C35.9499 58.3222 35.6362 60.1382 35.6281 61.9684C35.6281 69.2614 40.4766 75.6324 47.6672 79.0955C45.5056 81.6985 43.7861 84.6387 42.5773 87.7989C25.6312 69.3013 25.4904 38.8211 25.6717 23.7936C29.1699 22.7628 32.7414 21.8793 36.3065 21.1633C44.1184 19.5973 52.0633 18.7891 60.0305 18.75C67.9792 18.7906 75.9054 19.5988 83.6987 21.1633C87.2591 21.8784 90.8306 22.7627 94.3343 23.7955C94.5157 38.8224 94.3751 69.3026 77.4288 87.7985Z" fill="#DA8F75" />
  </symbol>

  <symbol id="pet-record" viewBox="0 0 120 120" fill="none">
      <path d="M91.875 16.4062H78.75V15.4687C78.75 14.9715 78.5525 14.4945 78.2008 14.1429C77.8492 13.7913 77.3723 13.5937 76.875 13.5937H67.2629C66.847 11.9838 65.9079 10.5576 64.5932 9.53944C63.2785 8.52126 61.6628 7.96875 60 7.96875C58.3372 7.96875 56.7215 8.52126 55.4068 9.53944C54.0921 10.5576 53.153 11.9838 52.7371 13.5937H43.125C42.6277 13.5937 42.1508 13.7913 41.7992 14.1429C41.4475 14.4945 41.25 14.9715 41.25 15.4687V16.4062H28.125C27.1307 16.4072 26.1775 16.8026 25.4744 17.5057C24.7714 18.2087 24.376 19.162 24.375 20.1562V108.281C24.376 109.275 24.7714 110.229 25.4744 110.932C26.1775 111.635 27.1307 112.03 28.125 112.031H91.875C92.8693 112.03 93.8225 111.635 94.5256 110.932C95.2286 110.229 95.624 109.275 95.625 108.281V20.1562C95.624 19.162 95.2286 18.2087 94.5256 17.5057C93.8225 16.8026 92.8693 16.4072 91.875 16.4062ZM43.125 30.6253H76.875C77.3723 30.6253 77.8492 30.4277 78.2008 30.0761C78.5524 29.7245 78.75 29.2476 78.75 28.7503V27.6562H84.375V100.781H35.625V27.6562H41.25V28.7503C41.25 29.2476 41.4476 29.7245 41.7992 30.0761C42.1508 30.4277 42.6277 30.6253 43.125 30.6253ZM45 17.3437H54.375C54.8723 17.3437 55.3492 17.1462 55.7008 16.7946C56.0525 16.4429 56.25 15.966 56.25 15.4687C56.25 14.4742 56.6451 13.5204 57.3484 12.8171C58.0516 12.1138 59.0054 11.7187 60 11.7187C60.9946 11.7187 61.9484 12.1138 62.6517 12.8171C63.3549 13.5204 63.75 14.4742 63.75 15.4687C63.75 15.966 63.9475 16.4429 64.2992 16.7946C64.6508 17.1462 65.1277 17.3437 65.625 17.3437H75V26.8753H45V17.3437ZM91.875 108.281H28.125V20.1562H41.25V23.9062H33.75C33.2527 23.9062 32.7758 24.1038 32.4242 24.4554C32.0725 24.807 31.875 25.284 31.875 25.7812V102.656C31.875 103.154 32.0725 103.63 32.4242 103.982C32.7758 104.334 33.2527 104.531 33.75 104.531H86.25C86.7473 104.531 87.2242 104.334 87.5758 103.982C87.9275 103.63 88.125 103.154 88.125 102.656V25.7812C88.125 25.284 87.9275 24.807 87.5758 24.4554C87.2242 24.1038 86.7473 23.9062 86.25 23.9062H78.75V20.1562H91.875V108.281Z" fill="#DA8F75" />
      <path d="M77.3438 73.5176H58.5938C58.0965 73.5176 57.6196 73.32 57.2679 72.9684C56.9163 72.6168 56.7188 72.1399 56.7188 71.6426C56.7188 71.1453 56.9163 70.6684 57.2679 70.3168C57.6196 69.9651 58.0965 69.7676 58.5938 69.7676H77.3438C77.841 69.7676 78.3179 69.9651 78.6696 70.3168C79.0212 70.6684 79.2188 71.1453 79.2188 71.6426C79.2188 72.1399 79.0212 72.6168 78.6696 72.9684C78.3179 73.32 77.841 73.5176 77.3438 73.5176Z" fill="#DA8F75" />
      <path d="M77.3438 81.0176H58.5938C58.0965 81.0176 57.6196 80.82 57.2679 80.4684C56.9163 80.1168 56.7188 79.6399 56.7188 79.1426C56.7188 78.6453 56.9163 78.1684 57.2679 77.8168C57.6196 77.4651 58.0965 77.2676 58.5938 77.2676H77.3438C77.841 77.2676 78.3179 77.4651 78.6696 77.8168C79.0212 78.1684 79.2188 78.6453 79.2188 79.1426C79.2188 79.6399 79.0212 80.1168 78.6696 80.4684C78.3179 80.82 77.841 81.0176 77.3438 81.0176Z" fill="#DA8F75" />
      <path d="M45.4226 81.0179C45.1565 81.018 44.8935 80.9613 44.651 80.8518C44.4086 80.7422 44.1922 80.5823 44.0164 80.3826L41.2496 77.2432C40.9209 76.8703 40.7537 76.382 40.785 75.8858C40.8162 75.3896 41.0433 74.9261 41.4162 74.5973C41.7892 74.2686 42.2775 74.1014 42.7737 74.1326C43.2699 74.1639 43.7334 74.391 44.0621 74.7639L45.4226 76.3066L50.6237 70.4033C50.7865 70.2185 50.9841 70.0676 51.2052 69.9591C51.4263 69.8507 51.6666 69.7869 51.9124 69.7713C52.1582 69.7558 52.4046 69.7888 52.6377 69.8684C52.8707 69.9481 53.0857 70.0729 53.2705 70.2357C53.4553 70.3985 53.6063 70.5961 53.7147 70.8172C53.8231 71.0383 53.8869 71.2786 53.9025 71.5244C53.918 71.7702 53.885 72.0166 53.8054 72.2497C53.7257 72.4827 53.6009 72.6977 53.4381 72.8825L46.8298 80.3825C46.6537 80.5822 46.4372 80.7421 46.1946 80.8516C45.952 80.9612 45.6888 81.0179 45.4226 81.0179Z" fill="#DA8F75" />
      <path d="M77.3438 88.5176H58.5938C58.0965 88.5176 57.6196 88.32 57.2679 87.9684C56.9163 87.6168 56.7188 87.1399 56.7188 86.6426C56.7188 86.1453 56.9163 85.6684 57.2679 85.3168C57.6196 84.9651 58.0965 84.7676 58.5938 84.7676H77.3438C77.841 84.7676 78.3179 84.9651 78.6696 85.3168C79.0212 85.6684 79.2188 86.1453 79.2188 86.6426C79.2188 87.1399 79.0212 87.6168 78.6696 87.9684C78.3179 88.32 77.841 88.5176 77.3438 88.5176Z" fill="#DA8F75" />
      <path d="M77.3438 96.0176H58.5938C58.0965 96.0176 57.6196 95.82 57.2679 95.4684C56.9163 95.1168 56.7188 94.6399 56.7188 94.1426C56.7188 93.6453 56.9163 93.1684 57.2679 92.8168C57.6196 92.4651 58.0965 92.2676 58.5938 92.2676H77.3438C77.841 92.2676 78.3179 92.4651 78.6696 92.8168C79.0212 93.1684 79.2188 93.6453 79.2188 94.1426C79.2188 94.6399 79.0212 95.1168 78.6696 95.4684C78.3179 95.82 77.841 96.0176 77.3438 96.0176Z" fill="#DA8F75" />
      <path d="M45.4226 96.0179C45.1565 96.018 44.8935 95.9613 44.651 95.8518C44.4086 95.7422 44.1922 95.5823 44.0164 95.3826L41.2496 92.2432C40.9209 91.8703 40.7537 91.382 40.785 90.8858C40.8162 90.3896 41.0433 89.9261 41.4162 89.5973C41.7892 89.2686 42.2775 89.1014 42.7737 89.1326C43.2699 89.1639 43.7334 89.391 44.0621 89.7639L45.4226 91.3066L50.6237 85.4033C50.7865 85.2185 50.9841 85.0676 51.2052 84.9591C51.4263 84.8507 51.6666 84.7869 51.9124 84.7713C52.1582 84.7558 52.4046 84.7888 52.6377 84.8684C52.8707 84.9481 53.0857 85.0729 53.2705 85.2357C53.4553 85.3985 53.6063 85.5961 53.7147 85.8172C53.8231 86.0383 53.8869 86.2786 53.9025 86.5244C53.918 86.7702 53.885 87.0166 53.8054 87.2497C53.7257 87.4827 53.6009 87.6977 53.4381 87.8825L46.8298 95.3825C46.6537 95.5822 46.4372 95.7421 46.1946 95.8516C45.952 95.9612 45.6888 96.0179 45.4226 96.0179Z" fill="#DA8F75" />
      <path d="M64.9624 45.2731C64.7326 45.2734 64.5031 45.2534 64.2767 45.2136C63.5384 45.059 62.8502 44.7228 62.2744 44.2355C61.6987 43.7481 61.2535 43.1249 60.9791 42.4222C60.3978 41.0197 60.2399 39.4776 60.525 37.9864C61.1549 34.4168 63.7989 32.0044 66.5217 32.4796C67.2601 32.634 67.9483 32.9701 68.5241 33.4575C69.0999 33.945 69.5451 34.5682 69.8194 35.271C70.4006 36.6732 70.5585 38.2149 70.2734 39.7058C70.0314 41.2045 69.3557 42.5995 68.3298 43.7185C67.9032 44.1924 67.3847 44.5745 66.8058 44.8418C66.2269 45.109 65.5998 45.2558 64.9624 45.2731ZM65.8322 36.1691C65.4577 36.1691 64.5138 36.9629 64.2181 38.6383C64.0638 39.3976 64.1306 40.1853 64.4104 40.9079C64.5825 41.2988 64.794 41.4966 64.9276 41.5204C65.0668 41.5396 65.3286 41.4297 65.6234 41.1221C66.1332 40.5389 66.4652 39.8218 66.5802 39.0558C66.7344 38.2961 66.6677 37.5073 66.3879 36.7843C66.2158 36.3943 66.0043 36.1966 65.8706 36.1728L65.8322 36.1691Z" fill="#DA8F75" />
      <path d="M72.4686 51.4634C72.0558 51.4644 71.6461 51.3925 71.2583 51.251C70.6478 51.0098 70.1073 50.62 69.6855 50.1171C69.2638 49.6142 68.9742 49.0139 68.8431 48.3708C68.5841 47.1332 68.676 45.8479 69.1084 44.6598C69.5408 43.4716 70.2965 42.4279 71.2903 41.6462C71.7957 41.2217 72.4039 40.9377 73.0538 40.8229C73.7038 40.7081 74.3725 40.7665 74.9927 40.9922C75.6129 41.2179 76.1627 41.603 76.5869 42.1086C77.011 42.6143 77.2945 43.2228 77.4088 43.8728C77.6678 45.1104 77.5759 46.3957 77.1435 47.5838C76.7111 48.7719 75.9554 49.8157 74.9616 50.5973C74.2439 51.144 73.3706 51.4474 72.4686 51.4634ZM73.6442 44.478C73.1867 44.8708 72.8383 45.375 72.6326 45.9419C72.4962 46.2258 72.4233 46.5361 72.419 46.851C72.4148 47.166 72.4792 47.4781 72.6078 47.7656C73.0653 47.3728 73.4138 46.8685 73.6195 46.3017C73.7556 46.0178 73.8291 45.7068 73.8332 45.392C73.8373 45.0772 73.7729 44.7653 73.6442 44.478Z" fill="#DA8F75" />
      <path d="M47.5341 51.4639C46.6321 51.4478 45.7587 51.1444 45.0411 50.5978C44.0349 49.8284 43.2763 48.7808 42.8594 47.5848C42.4093 46.4003 42.3169 45.1097 42.5939 43.8732C42.708 43.2231 42.9914 42.6145 43.4156 42.1088C43.8397 41.603 44.3895 41.2179 45.0098 40.9922C45.6301 40.7664 46.2988 40.7081 46.9488 40.823C47.5988 40.9379 48.2071 41.222 48.7123 41.6467C49.7064 42.4281 50.4623 43.4718 50.8948 44.66C51.3272 45.8482 51.4189 47.1336 51.1596 48.3712C51.0283 49.0145 50.7386 49.6149 50.3167 50.118C49.8948 50.6211 49.3541 51.011 48.7435 51.2524C48.3558 51.393 47.9465 51.4646 47.5341 51.4639ZM46.2167 44.5296C46.1188 45.1245 46.1758 45.7347 46.3824 46.3012C46.4608 46.6062 46.6054 46.8915 46.8046 47.1354C47.0038 47.3793 47.2537 47.577 47.5369 47.7147C47.6349 47.1198 47.5778 46.5096 47.3712 45.9432C47.2927 45.638 47.1488 45.3535 46.9495 45.1094C46.7501 44.8653 46.5001 44.6675 46.2167 44.5296Z" fill="#DA8F75" />
      <path d="M55.0365 45.2732C54.3992 45.2558 53.772 45.109 53.1932 44.8418C52.6143 44.5745 52.0958 44.1924 51.6692 43.7186C50.6616 42.5873 49.9887 41.1981 49.7256 39.7062C49.4625 38.2143 49.6198 36.6786 50.1796 35.271C50.4539 34.5684 50.8989 33.9452 51.4745 33.4578C52.0502 32.9704 52.7382 32.6342 53.4765 32.4796C56.2185 31.9953 58.8451 34.4168 59.4741 37.9864C59.7591 39.4776 59.6013 41.0197 59.02 42.4222C58.7455 43.125 58.3002 43.7483 57.7242 44.2357C57.1482 44.7231 56.4599 45.0592 55.7213 45.2136C55.4952 45.2535 55.2661 45.2734 55.0365 45.2732ZM54.1668 36.1692L54.1274 36.1729C53.9946 36.1967 53.7831 36.3945 53.611 36.7845C53.3312 37.5074 53.2645 38.2953 53.4188 39.055C53.5337 39.821 53.8657 40.539 54.3755 41.1222C54.4584 41.2321 54.5627 41.324 54.6821 41.3925C54.8016 41.4609 54.9337 41.5045 55.0704 41.5204C55.205 41.4966 55.4165 41.2989 55.5886 40.9079C55.8684 40.1853 55.9351 39.3977 55.7808 38.6383C55.4851 36.9629 54.5412 36.1692 54.1668 36.1692Z" fill="#DA8F75" />
      <path d="M66.9781 65.8582C66.2072 65.8586 65.4387 65.7713 64.6874 65.5982C63.7068 65.33 62.7684 64.926 61.8997 64.3979C61.3417 64.0225 60.7161 63.7591 60.0576 63.6225C59.3992 63.7591 58.7735 64.0225 58.2156 64.3979C57.3468 64.926 56.4084 65.33 55.4278 65.5982C54.0269 66.003 52.5421 66.0174 51.1337 65.6398C49.7252 65.2623 48.4467 64.5071 47.4362 63.4559C46.5123 62.3028 46.0548 60.845 46.1539 59.3709C46.2531 57.8967 46.9018 56.5134 47.9717 55.4944C48.5665 54.9827 49.2084 54.5284 49.8889 54.1376C50.5717 53.7963 51.1738 53.3131 51.6549 52.7204C51.9686 52.1694 52.2195 51.585 52.4029 50.9781C52.693 50.0267 53.1109 49.119 53.6453 48.28C54.3923 47.306 55.3691 46.5323 56.4882 46.0281C57.6074 45.5239 58.834 45.3049 60.0585 45.3906C61.3188 45.2546 62.5925 45.4584 63.7473 45.981C64.9022 46.5036 65.896 47.3259 66.6256 48.3625C67.0985 49.1768 67.4624 50.0498 67.7078 50.9589C67.8691 51.6044 68.1238 52.2228 68.464 52.7946C68.932 53.4392 69.5638 53.9468 70.2941 54.2649C70.9597 54.5952 71.5807 55.0083 72.1426 55.4944C73.2128 56.5132 73.8618 57.8964 73.9612 59.3707C74.0605 60.8449 73.603 62.3028 72.6791 63.4559C71.9702 64.2587 71.0896 64.8915 70.1026 65.3074C69.1157 65.7233 68.0478 65.9115 66.9781 65.8582ZM60.0576 59.8725C61.3622 59.9653 62.6207 60.3933 63.7115 61.1149C64.2832 61.4681 64.8971 61.7477 65.5389 61.9471C66.2546 62.1763 67.0169 62.2198 67.7541 62.0735C68.4913 61.9271 69.1792 61.5956 69.7531 61.1103C70.0663 60.6975 70.2252 60.1881 70.2023 59.6704C70.1794 59.1527 69.9761 58.6593 69.6276 58.2758C69.2856 57.9951 68.9113 57.7562 68.5125 57.5644C67.264 56.9733 66.1889 56.0706 65.3906 54.9432C64.8211 54.06 64.395 53.0922 64.1281 52.0758C63.9713 51.4749 63.742 50.8954 63.4451 50.35C63.0141 49.8983 62.4833 49.5537 61.8953 49.3437C61.3073 49.1337 60.6783 49.0642 60.0586 49.1406C59.4464 49.0862 58.8297 49.1711 58.255 49.389C57.6802 49.6068 57.1622 49.952 56.7399 50.3985C56.3995 50.968 56.1319 51.578 55.9434 52.214C55.668 53.1019 55.2868 53.9533 54.8081 54.7501C54.0385 55.8322 53.0248 56.7176 51.8491 57.3346C51.3682 57.6078 50.9124 57.9227 50.4868 58.2759C50.1386 58.6596 49.9356 59.153 49.9129 59.6706C49.8901 60.1883 50.0491 60.6976 50.3623 61.1104C50.9362 61.5955 51.6241 61.9268 52.3612 62.0732C53.0984 62.2195 53.8606 62.1762 54.5764 61.9471C55.2182 61.7478 55.8322 61.4681 56.4038 61.1149C57.4946 60.3933 58.7531 59.9654 60.0576 59.8725Z" fill="#DA8F75" />
  </symbol>

  <symbol id="pet-award" viewBox="0 0 120 120" fill="none">
      <path d="M87.6484 86.9238C84.8671 86.9238 82.1483 86.0991 79.8357 84.5539C77.5232 83.0087 75.7207 80.8124 74.6564 78.2428C73.592 75.6732 73.3135 72.8457 73.8562 70.1179C74.3988 67.39 75.7381 64.8843 77.7048 62.9176C79.6714 60.951 82.1771 59.6116 84.905 59.069C87.6328 58.5264 90.4603 58.8049 93.0299 59.8693C95.5995 60.9336 97.7958 62.7361 99.341 65.0486C100.886 67.3612 101.711 70.08 101.711 72.8613C101.707 76.5897 100.224 80.1642 97.5876 82.8005C94.9513 85.4369 91.3768 86.9198 87.6484 86.9238ZM87.6484 62.5488C85.6088 62.5488 83.615 63.1537 81.9191 64.2868C80.2232 65.42 78.9015 67.0305 78.1209 68.9149C77.3404 70.7993 77.1362 72.8728 77.5341 74.8732C77.932 76.8736 78.9142 78.7111 80.3564 80.1534C81.7986 81.5956 83.6361 82.5778 85.6366 82.9757C87.637 83.3736 89.7105 83.1694 91.5949 82.3888C93.4792 81.6083 95.0898 80.2865 96.223 78.5907C97.3561 76.8948 97.9609 74.901 97.9609 72.8613C97.9577 70.1273 96.8702 67.5061 94.9369 65.5729C93.0036 63.6396 90.3825 62.5521 87.6484 62.5488Z" fill="#DA8F75" />
      <path d="M44.2738 42.9367C44.0197 42.9368 43.766 42.9148 43.5157 42.8708C42.706 42.6992 41.9518 42.3285 41.3214 41.7922C40.6909 41.2559 40.2041 40.5709 39.9049 39.7991C39.2774 38.2154 39.1018 36.4885 39.3976 34.8109C39.6934 33.1332 40.449 31.5706 41.5803 30.2969C42.1075 29.6514 42.7972 29.1581 43.5784 28.8678C44.3596 28.5775 45.2041 28.5007 46.0249 28.6454C46.8456 28.79 47.613 29.1509 48.2479 29.6908C48.8828 30.2307 49.3623 30.93 49.637 31.7169C50.2903 33.2944 50.4666 35.0289 50.1442 36.7056C49.5015 40.3576 47.0039 42.9367 44.2738 42.9367ZM45.2791 32.3303C44.889 32.3852 44.5343 32.5861 44.2866 32.8924C43.6693 33.629 43.2564 34.5149 43.0893 35.4613C42.9222 36.4077 43.0067 37.3815 43.3345 38.2849C43.5579 38.7912 43.8691 39.1254 44.1676 39.1775C44.803 39.2984 46.0902 38.1101 46.4527 36.0538C46.6424 35.1087 46.5566 34.129 46.2056 33.2312C45.9822 32.725 45.6709 32.3908 45.3724 32.3386C45.3416 32.333 45.3104 32.3302 45.2791 32.3303Z" fill="#DA8F75" />
      <path d="M53.0027 50.1492C52.5574 50.1497 52.1155 50.072 51.6972 49.9194C49.2344 49.0222 48.2163 45.8233 49.3772 42.6354C49.8422 41.2995 50.6889 40.1293 51.8125 39.27C52.3701 38.8246 53.0301 38.5254 53.7325 38.3994C54.4349 38.2734 55.1577 38.3247 55.8353 38.5485C58.2963 39.443 59.3162 42.6428 58.1571 45.8306C57.8315 46.9849 57.1655 48.0161 56.246 48.7862C55.3265 49.5562 54.1962 50.0312 53.0027 50.1492ZM54.5298 42.0696C54.3437 42.0949 54.1688 42.1734 54.0263 42.2958C53.5039 42.7185 53.1132 43.2817 52.9002 43.919C52.3765 45.3591 52.8141 46.3351 52.9789 46.3955C53.1584 46.4395 54.1068 45.9936 54.6342 44.5489C55.1579 43.1078 54.7184 42.1319 54.5536 42.0724L54.5298 42.0696Z" fill="#DA8F75" />
      <path d="M23.9546 50.146C22.9693 50.1274 22.0155 49.7951 21.2318 49.1975C20.1239 48.3232 19.2812 47.1575 18.7984 45.8313C18.3156 44.505 18.2116 43.0705 18.4981 41.6884C18.6391 40.9882 18.9525 40.3342 19.4101 39.7857C19.8676 39.2372 20.4547 38.8115 21.1183 38.5472C21.7964 38.3243 22.5194 38.2736 23.2219 38.3997C23.9245 38.5258 24.5847 38.8247 25.143 39.2696C26.2508 40.1441 27.0933 41.3097 27.5761 42.636C28.0589 43.9622 28.163 45.3967 27.8767 46.7787C27.7356 47.4788 27.4221 48.1326 26.9646 48.6809C26.507 49.2292 25.92 49.6548 25.2565 49.919C24.8391 50.07 24.3985 50.1468 23.9546 50.146ZM22.4257 42.0684L22.4 42.0721C22.257 42.2073 22.1652 42.3878 22.14 42.583C22.0113 43.242 22.0742 43.9242 22.3213 44.5486C22.5339 45.1851 22.924 45.7486 23.4456 46.1709C23.7312 46.3806 23.9308 46.4145 23.9747 46.3943C24.015 46.3806 24.1487 46.2323 24.2348 45.8843C24.3446 45.2243 24.2821 44.5471 24.0534 43.9184C23.8246 43.2896 23.4374 42.7306 22.9292 42.2954C22.7862 42.1737 22.6116 42.095 22.4257 42.0684Z" fill="#DA8F75" />
      <path d="M32.6818 42.9365C29.9518 42.9374 27.456 40.3584 26.8133 36.7054C26.4909 35.0287 26.6672 33.2943 27.3205 31.7167C27.6197 30.945 28.1065 30.26 28.737 29.7237C29.3674 29.1874 30.1216 28.8167 30.9314 28.6451C33.9563 28.1114 36.8567 30.8213 37.5579 34.8103C37.8804 36.487 37.704 38.2215 37.0507 39.799C36.7516 40.5707 36.2648 41.2557 35.6343 41.792C35.0039 42.3283 34.2497 42.699 33.44 42.8706C33.1897 42.9146 32.936 42.9367 32.6818 42.9365ZM31.6784 32.3301C31.6465 32.33 31.6146 32.3328 31.5832 32.3384C31.2848 32.3906 30.9735 32.7247 30.7501 33.231C30.4005 34.1292 30.3154 35.1086 30.5047 36.0536C30.8673 38.1089 32.1362 39.2918 32.788 39.1773C33.0865 39.1252 33.3978 38.791 33.6212 38.2847C33.9707 37.3866 34.0559 36.4071 33.8665 35.4621C33.5205 33.5002 32.3632 32.3301 31.6784 32.3301Z" fill="#DA8F75" />
      <path d="M30.4766 66.9164C29.2776 66.9781 28.0801 66.7688 26.9731 66.3041C25.8662 65.8394 24.8782 65.1312 24.0825 64.2321C23.0748 62.9427 22.5778 61.3271 22.6866 59.6943C22.7954 58.0614 23.5023 56.526 24.6721 55.3817C25.3508 54.7988 26.0828 54.2811 26.8584 53.8354C27.6957 53.4159 28.4317 52.8192 29.0153 52.0867C29.3964 51.4246 29.6999 50.7208 29.9199 49.9892C30.25 48.9082 30.7243 47.8766 31.3299 46.9222C32.1713 45.8303 33.27 44.9637 34.5279 44.3999C35.7858 43.8361 37.1638 43.5927 38.5388 43.6913H38.5443C42.9388 43.6913 44.9877 45.494 45.9326 47.0064C46.4686 47.9327 46.8817 48.925 47.1612 49.9581C47.3578 50.7413 47.6687 51.4912 48.0841 52.1837C48.6564 52.9739 49.4287 53.5977 50.3216 53.991C51.0746 54.3645 51.7778 54.8311 52.4145 55.3798C53.585 56.5243 54.2925 58.0601 54.4016 59.6934C54.5107 61.3268 54.0138 62.943 53.0059 64.233C50.7684 67.0244 46.751 67.2588 44.0081 66.6216C42.8934 66.3137 41.8267 65.8527 40.8386 65.252C40.1477 64.7819 39.3662 64.4613 38.5443 64.3107C37.7223 64.4613 36.9408 64.7819 36.2499 65.252C35.2619 65.8528 34.1952 66.3135 33.0804 66.6207C32.2264 66.8174 31.3529 66.9166 30.4766 66.9164ZM38.5405 47.4413C37.7779 47.376 37.0105 47.4861 36.297 47.7632C35.5836 48.0403 34.943 48.477 34.4243 49.0398C34.0126 49.7252 33.689 50.4597 33.4612 51.2261C33.1476 52.2384 32.7136 53.2094 32.1685 54.1182C31.2944 55.3379 30.1468 56.3359 28.8176 57.0324C28.2414 57.3602 27.6955 57.7386 27.1862 58.163C26.7192 58.6617 26.445 59.3102 26.4124 59.9925C26.3799 60.6749 26.5912 61.3466 27.0085 61.8874C27.7093 62.5058 28.5591 62.9309 29.4742 63.1207C30.3894 63.3105 31.3382 63.2584 32.2271 62.9695C33.0038 62.7326 33.7466 62.3963 34.4371 61.9689C35.6634 61.1564 37.0774 60.6716 38.5442 60.5607C40.011 60.6719 41.4249 61.1566 42.6512 61.9689C43.3411 62.3962 44.0833 62.7326 44.8595 62.9695C45.7487 63.2575 46.6975 63.3093 47.6128 63.1197C48.528 62.9302 49.3782 62.5058 50.0799 61.8883C50.4974 61.347 50.7086 60.6747 50.6758 59.9918C50.6429 59.3089 50.3681 58.66 49.9005 58.1612C49.4835 57.8186 49.0275 57.5267 48.5418 57.2915C47.1296 56.6248 45.9131 55.6054 45.0097 54.3316C44.3652 53.328 43.8832 52.229 43.5815 51.075C43.3906 50.3499 43.1121 49.6508 42.752 48.9931C42.2234 48.4201 41.5664 47.9806 40.8349 47.7108C40.1034 47.4411 39.3184 47.3487 38.5443 47.4413H38.5405Z" fill="#DA8F75" />
      <path d="M87.1016 31.8145H75.8516C75.3543 31.8145 74.8774 31.6169 74.5257 31.2653C74.1741 30.9136 73.9766 30.4367 73.9766 29.9395C73.9766 29.4422 74.1741 28.9653 74.5257 28.6136C74.8774 28.262 75.3543 28.0645 75.8516 28.0645H87.1016C87.5988 28.0645 88.0758 28.262 88.4274 28.6136C88.779 28.9653 88.9766 29.4422 88.9766 29.9395C88.9766 30.4367 88.779 30.9136 88.4274 31.2653C88.0758 31.6169 87.5988 31.8145 87.1016 31.8145Z" fill="#DA8F75" />
      <path d="M94.6016 41.1895H68.3516C67.8543 41.1895 67.3774 40.9919 67.0257 40.6403C66.6741 40.2886 66.4766 39.8117 66.4766 39.3145C66.4766 38.8172 66.6741 38.3403 67.0257 37.9886C67.3774 37.637 67.8543 37.4395 68.3516 37.4395H94.6016C95.0988 37.4395 95.5758 37.637 95.9274 37.9886C96.279 38.3403 96.4766 38.8172 96.4766 39.3145C96.4766 39.8117 96.279 40.2886 95.9274 40.6403C95.5758 40.9919 95.0988 41.1895 94.6016 41.1895Z" fill="#DA8F75" />
      <path d="M107.654 76.9002C107.845 76.6075 108.063 76.3346 108.308 76.0854C109.237 75.2545 109.817 74.1029 109.932 72.8618C109.817 71.6209 109.237 70.4694 108.308 69.6382C108.075 69.3782 107.722 68.9864 107.676 68.9205C107.737 68.5607 107.838 68.2088 107.977 67.8713C108.512 66.7681 108.606 65.5022 108.24 64.3318C107.667 63.2325 106.694 62.3949 105.521 61.9918C105.199 61.839 104.714 61.6082 104.644 61.5643C104.567 61.2127 104.527 60.854 104.523 60.4941C104.509 59.7502 104.38 59.0129 104.142 58.3079V18.1719C104.141 16.6805 103.548 15.2507 102.493 14.1962C101.438 13.1417 100.009 12.5485 98.5173 12.5469H15.6914C14.2001 12.5485 12.7703 13.1417 11.7157 14.1962C10.6612 15.2507 10.068 16.6805 10.0664 18.1719V77.3314C10.068 78.8227 10.6612 80.2525 11.7157 81.3071C12.7703 82.3616 14.2001 82.9548 15.6914 82.9564H68.3818C68.8245 83.2517 69.2905 83.5105 69.7753 83.73C70.0957 83.8829 70.5809 84.1146 70.6523 84.1594C70.729 84.5111 70.7695 84.8697 70.7732 85.2297C70.6981 86.4604 71.0979 87.6732 71.8901 88.618C72.7082 89.3407 73.7682 89.7291 74.8595 89.7061C74.5336 90.726 74.2241 91.7505 73.8658 92.7553C72.8569 95.5769 71.6996 98.384 70.4252 101.098C70.267 101.436 70.2131 101.813 70.2702 102.181C70.3272 102.55 70.4928 102.893 70.7456 103.167C70.9985 103.441 71.3272 103.633 71.6899 103.719C72.0525 103.805 72.4326 103.782 72.7817 103.651L78.3464 101.564L81.3988 106.557C81.5665 106.831 81.8017 107.057 82.0819 107.214C82.3621 107.371 82.6779 107.454 82.9991 107.454L83.0522 107.453C83.382 107.444 83.7035 107.348 83.9841 107.175C84.2648 107.001 84.4948 106.757 84.6508 106.466C85.693 104.526 86.63 102.518 87.4945 100.495C88.3588 102.518 89.2959 104.526 90.338 106.466C90.494 106.757 90.7239 107.001 91.0046 107.175C91.2853 107.348 91.6068 107.444 91.9365 107.453L91.9896 107.454C92.3109 107.454 92.6267 107.371 92.9069 107.214C93.1871 107.057 93.4223 106.831 93.59 106.557L96.6424 101.564L102.207 103.651C102.556 103.782 102.936 103.805 103.299 103.719C103.661 103.633 103.99 103.441 104.243 103.167C104.496 102.893 104.661 102.55 104.718 102.182C104.776 101.813 104.722 101.436 104.563 101.099C103.289 98.3841 102.132 95.577 101.123 92.7563C100.762 91.7456 100.455 90.7383 100.133 89.7287C101.325 89.7898 102.495 89.3936 103.404 88.6209C104.196 87.6755 104.596 86.4626 104.521 85.2316C104.541 84.8718 104.571 84.3298 104.585 84.2456C104.879 84.0428 105.192 83.8707 105.521 83.732C106.693 83.329 107.666 82.4922 108.24 81.3937C108.607 80.2232 108.513 78.9566 107.976 77.8533C107.854 77.509 107.671 76.9881 107.654 76.9002ZM13.8164 77.3314V18.1719C13.8169 17.6747 14.0146 17.1981 14.3661 16.8466C14.7176 16.4951 15.1942 16.2974 15.6914 16.2969H98.5174C99.0145 16.2974 99.4911 16.4951 99.8427 16.8466C100.194 17.1981 100.392 17.6747 100.392 18.1719V56.0144C100.268 56.0064 100.137 55.9941 100.019 55.9877C99.6581 55.9685 99.1143 55.9392 99.0319 55.9236C98.8285 55.6307 98.656 55.3175 98.5174 54.9889C98.1149 53.8169 97.2789 52.8435 96.181 52.2688C95.0102 51.9002 93.7427 51.9949 92.6397 52.5334C92.2955 52.6552 91.7755 52.8392 91.6876 52.8557C91.3945 52.6656 91.1215 52.4463 90.8727 52.2011C90.0413 51.2723 88.8895 50.6921 87.6482 50.577C86.407 50.6921 85.2552 51.2723 84.4238 52.2011C84.1656 52.4346 83.7719 52.788 83.7078 52.8346H83.7005C83.343 52.7711 82.9932 52.6701 82.6568 52.5334C82.1252 52.2151 81.5263 52.026 80.9083 51.9814C80.2903 51.9368 79.6704 52.0379 79.0986 52.2766C78.5268 52.5153 78.0191 52.8849 77.6162 53.3557C77.2133 53.8265 76.9266 54.3852 76.7791 54.987C76.6271 55.3084 76.3946 55.7946 76.3488 55.866C75.9976 55.9437 75.6392 55.9842 75.2795 55.9868C74.7127 56.0018 74.1486 56.0696 73.5944 56.1892H68.3544C67.8571 56.1892 67.3802 56.3867 67.0285 56.7383C66.6769 57.09 66.4794 57.5669 66.4794 58.0642C66.4794 58.5614 66.6769 59.0383 67.0285 59.39C67.3802 59.7416 67.8571 59.9392 68.3544 59.9392H70.8128C70.7985 60.1259 70.7828 60.3158 70.7732 60.4912C70.7549 60.8501 70.7256 61.3939 70.7073 61.479C70.4146 61.6819 70.1017 61.8537 69.7735 61.9918C68.6018 62.3952 67.6288 63.2319 67.0544 64.33C66.6869 65.5006 66.7819 66.7676 67.3199 67.8704C67.4408 68.2146 67.6257 68.7355 67.6422 68.8216C67.4519 69.1143 67.233 69.3872 66.9885 69.6364C66.0586 70.4676 65.4777 71.6199 65.3625 72.8618C65.4781 74.103 66.0582 75.2546 66.9867 76.0863C67.221 76.3463 67.5744 76.7382 67.6202 76.8022C67.5586 77.1619 67.4579 77.5137 67.3199 77.8514C67.1593 78.2941 67.0277 78.7467 66.9258 79.2064H15.6914C15.1943 79.2059 14.7177 79.0082 14.3661 78.6567C14.0146 78.3052 13.8169 77.8286 13.8164 77.3314ZM84.594 97.7705C84.0557 99.1026 83.4715 100.427 82.8472 101.734L80.7397 98.285C80.5118 97.9133 80.1618 97.6325 79.7495 97.4906C79.3372 97.3488 78.8885 97.3549 78.4802 97.5077L75.6384 98.5743C76.2627 97.0674 76.8505 95.5448 77.3962 94.0177C77.5721 93.5258 77.7142 93.0221 77.8827 92.5254C78.2149 92.9277 78.6373 93.2461 79.1155 93.4547C80.2865 93.8209 81.5532 93.7263 82.6568 93.1901C83.001 93.0683 83.521 92.8843 83.6089 92.8678C83.902 93.0579 84.175 93.2772 84.4238 93.5224C84.6228 93.7017 84.8437 93.8968 85.0828 94.0893C85.219 94.5115 85.3633 94.933 85.5077 95.3548C85.22 96.1498 84.9267 96.9493 84.594 97.7705ZM96.5087 97.5077C96.1004 97.3541 95.6514 97.3477 95.239 97.4896C94.8265 97.6315 94.4765 97.9128 94.2491 98.285L92.1416 101.734C91.5173 100.427 90.9332 99.1017 90.3948 97.7705C89.9873 96.7626 89.608 95.7393 89.2463 94.7117C89.8362 94.3852 90.3827 93.9856 90.8727 93.5224C91.1309 93.289 91.5246 92.9356 91.5887 92.8889C91.952 92.9334 92.306 93.0347 92.6379 93.1892C93.7412 93.7262 95.008 93.8212 96.1791 93.4547C96.5543 93.2923 96.8952 93.0603 97.1839 92.7709C97.3268 93.1884 97.4437 93.602 97.5927 94.0187C98.1383 95.5449 98.7261 97.0674 99.3505 98.5743L96.5087 97.5077ZM105.521 73.5768C104.786 74.265 104.257 75.144 103.992 76.1155C103.867 77.1325 104.022 78.1643 104.439 79.1001C104.529 79.3519 104.651 79.7007 104.706 79.9351C104.499 80.0651 104.155 80.229 103.908 80.3471C102.922 80.6403 102.07 81.2688 101.498 82.1238C100.926 82.9789 100.671 84.0069 100.777 85.03C100.762 85.301 100.742 85.6773 100.702 85.9171C100.462 85.9574 100.087 85.9776 99.8156 85.9921C98.7961 85.9648 97.7884 86.2155 96.9006 86.7172C96.7908 86.7998 96.6863 86.8893 96.5879 86.9852C96.5629 87.005 96.5407 87.0253 96.5167 87.0463C95.9253 87.6423 95.455 88.3474 95.1318 89.1223C95.0128 89.3695 94.8499 89.7129 94.7199 89.9207C94.4855 89.8648 94.1376 89.7421 93.8867 89.6533C92.9518 89.2351 91.9205 89.0799 90.9039 89.2047C89.9322 89.4701 89.0531 89.9996 88.3643 90.7346C88.1366 90.9475 87.8976 91.148 87.6483 91.3352C87.399 91.148 87.16 90.9475 86.9324 90.7346C86.2439 90.0001 85.3655 89.4705 84.3945 89.2047C84.1689 89.1607 83.9396 89.1389 83.7097 89.1397C82.9189 89.1788 82.1405 89.3525 81.4081 89.6533C81.1572 89.7421 80.8093 89.8648 80.575 89.9207C80.445 89.7129 80.282 89.3694 80.163 89.1214C79.8088 88.2253 79.2377 87.4312 78.5009 86.8102L78.4857 86.797C78.452 86.7724 78.4275 86.7406 78.3923 86.7171C77.5054 86.2145 76.4982 85.9635 75.4791 85.9911C75.2081 85.9765 74.8328 85.9564 74.5929 85.9162C74.5526 85.6763 74.5325 85.3 74.5179 85.029C74.6237 84.0056 74.3687 82.9774 73.797 82.1221C73.2253 81.2667 72.3728 80.6379 71.3868 80.3443C71.1396 80.2261 70.7972 80.0632 70.5885 79.9341C70.6452 79.6997 70.7679 79.3518 70.8558 79.101C71.2735 78.1649 71.4286 77.1329 71.3044 76.1154C71.0388 75.1446 70.5096 74.2662 69.7755 73.5776C69.5623 73.3497 69.3612 73.1107 69.1731 72.8617C69.3606 72.6122 69.5617 72.3732 69.7755 72.1457C70.5095 71.4571 71.0386 70.5788 71.3042 69.608C71.4284 68.5902 71.2733 67.5579 70.8555 66.6216C70.7676 66.3707 70.6449 66.0228 70.5882 65.7894C70.7969 65.6594 71.1393 65.4955 71.3884 65.3774C72.3359 65.0164 73.1671 64.4039 73.7925 63.6058C74.295 62.7189 74.5457 61.7116 74.5176 60.6926C74.5323 60.4216 74.5524 60.0453 74.5926 59.8064C74.8325 59.7661 75.2097 59.746 75.4807 59.7314C76.504 59.8373 77.5321 59.5824 78.3873 59.0106C79.2426 58.4389 79.8712 57.5863 80.1644 56.6003C80.2835 56.3531 80.4464 56.0107 80.5764 55.8038C80.8089 55.8587 81.1569 55.9814 81.4077 56.0702C82.3435 56.4878 83.3752 56.6428 84.3924 56.5188C85.3641 56.2535 86.2432 55.7239 86.932 54.9889C87.1597 54.776 87.3987 54.5755 87.648 54.3884C87.8973 54.5755 88.1363 54.776 88.3639 54.9889C89.0524 55.7235 89.9308 56.253 90.9018 56.5188C91.9195 56.6423 92.9517 56.4873 93.8882 56.0702C94.1391 55.9814 94.4869 55.8587 94.7213 55.8038C94.8513 56.0107 95.0143 56.3549 95.1315 56.6021C95.4256 57.5876 96.0545 58.4395 96.9095 59.0109C97.7645 59.5823 98.7922 59.8375 99.8152 59.7323C100.088 59.7469 100.463 59.7671 100.703 59.8073C100.744 60.0471 100.764 60.4234 100.778 60.6944C100.75 61.7134 101.001 62.7206 101.503 63.6076C102.129 64.4049 102.96 65.0166 103.908 65.3774C104.155 65.4955 104.499 65.6593 104.706 65.7884C104.651 66.0228 104.528 66.3715 104.439 66.6234C104.022 67.5584 103.867 68.589 103.99 69.6053C104.255 70.5776 104.785 71.4572 105.521 72.1459C105.734 72.3734 105.934 72.6124 106.121 72.8618C105.934 73.1108 105.734 73.3494 105.521 73.5768Z" fill="#DA8F75" />
      <path d="M68.3516 50.5645H94.6016C95.0988 50.5645 95.5758 50.3669 95.9274 50.0153C96.279 49.6636 96.4766 49.1867 96.4766 48.6895C96.4766 48.1922 96.279 47.7153 95.9274 47.3636C95.5758 47.012 95.0988 46.8145 94.6016 46.8145H68.3516C67.8543 46.8145 67.3774 47.012 67.0257 47.3636C66.6741 47.7153 66.4766 48.1922 66.4766 48.6895C66.4766 49.1867 66.6741 49.6636 67.0257 50.0153C67.3774 50.3669 67.8543 50.5645 68.3516 50.5645Z" fill="#DA8F75" />
  </symbol>

  <symbol id="pet-carrier" viewBox="0 0 120 120" fill="none">
      <path d="M60.082 55.5947C59.8358 55.5948 59.5919 55.5463 59.3644 55.4521C59.1369 55.3579 58.9302 55.2198 58.7561 55.0457C58.5819 54.8716 58.4438 54.6649 58.3496 54.4373C58.2554 54.2098 58.207 53.966 58.207 53.7197V38.7197C58.207 38.2224 58.4046 37.7455 58.7562 37.3939C59.1078 37.0423 59.5848 36.8447 60.082 36.8447C60.5793 36.8447 61.0562 37.0423 61.4079 37.3939C61.7595 37.7455 61.957 38.2224 61.957 38.7197V53.7197C61.9571 53.966 61.9086 54.2098 61.8144 54.4373C61.7202 54.6648 61.5821 54.8716 61.408 55.0457C61.2339 55.2198 61.0272 55.3579 60.7996 55.4521C60.5721 55.5463 60.3283 55.5948 60.082 55.5947Z" fill="#DA8F75" />
      <path d="M47.4727 55.5947C47.2264 55.5948 46.9826 55.5463 46.755 55.4521C46.5275 55.3579 46.3208 55.2198 46.1467 55.0457C45.9726 54.8716 45.8345 54.6649 45.7402 54.4373C45.646 54.2098 45.5976 53.966 45.5977 53.7197V38.7197C45.5977 38.2224 45.7952 37.7455 46.1468 37.3939C46.4985 37.0423 46.9754 36.8447 47.4727 36.8447C47.9699 36.8447 48.4469 37.0423 48.7985 37.3939C49.1501 37.7455 49.3477 38.2224 49.3477 38.7197V53.7197C49.3477 53.966 49.2993 54.2098 49.2051 54.4373C49.1109 54.6648 48.9727 54.8716 48.7986 55.0457C48.6245 55.2198 48.4178 55.3579 48.1903 55.4521C47.9628 55.5463 47.7189 55.5948 47.4727 55.5947Z" fill="#DA8F75" />
      <path d="M34.8672 55.5947C34.6209 55.5948 34.3771 55.5463 34.1496 55.4521C33.9221 55.3579 33.7153 55.2198 33.5412 55.0457C33.3671 54.8716 33.229 54.6649 33.1348 54.4373C33.0406 54.2098 32.9921 53.966 32.9922 53.7197V38.7197C32.9922 38.2224 33.1897 37.7455 33.5414 37.3939C33.893 37.0423 34.3699 36.8447 34.8672 36.8447C35.3645 36.8447 35.8414 37.0423 36.193 37.3939C36.5446 37.7455 36.7422 38.2224 36.7422 38.7197V53.7197C36.7423 53.966 36.6938 54.2098 36.5996 54.4373C36.5054 54.6648 36.3673 54.8716 36.1932 55.0457C36.019 55.2198 35.8123 55.3579 35.5848 55.4521C35.3573 55.5463 35.1134 55.5948 34.8672 55.5947Z" fill="#DA8F75" />
      <path d="M72.6914 55.5947C72.4452 55.5948 72.2013 55.5463 71.9738 55.4521C71.7463 55.3579 71.5396 55.2198 71.3654 55.0457C71.1913 54.8716 71.0532 54.6649 70.959 54.4373C70.8648 54.2098 70.8163 53.966 70.8164 53.7197V38.7197C70.8164 38.2224 71.0139 37.7455 71.3656 37.3939C71.7172 37.0423 72.1941 36.8447 72.6914 36.8447C73.1887 36.8447 73.6656 37.0423 74.0172 37.3939C74.3689 37.7455 74.5664 38.2224 74.5664 38.7197V53.7197C74.5665 53.966 74.518 54.2098 74.4238 54.4373C74.3296 54.6649 74.1915 54.8716 74.0174 55.0457C73.8433 55.2198 73.6365 55.3579 73.409 55.4521C73.1815 55.5463 72.9377 55.5948 72.6914 55.5947Z" fill="#DA8F75" />
      <path d="M85.3008 55.5947C85.0545 55.5948 84.8107 55.5463 84.5832 55.4521C84.3557 55.3579 84.1489 55.2198 83.9748 55.0457C83.8007 54.8716 83.6626 54.6649 83.5684 54.4373C83.4742 54.2098 83.4257 53.966 83.4258 53.7197V38.7197C83.4258 38.2224 83.6233 37.7455 83.975 37.3939C84.3266 37.0423 84.8035 36.8447 85.3008 36.8447C85.7981 36.8447 86.275 37.0423 86.6266 37.3939C86.9782 37.7455 87.1758 38.2224 87.1758 38.7197V53.7197C87.1758 53.966 87.1274 54.2098 87.0332 54.4373C86.939 54.6649 86.8009 54.8716 86.6268 55.0457C86.4526 55.2198 86.2459 55.3579 86.0184 55.4521C85.7909 55.5463 85.547 55.5948 85.3008 55.5947Z" fill="#DA8F75" />
      <path d="M105.584 59.1359H105.301C103.319 47.0334 99.0588 37.8414 92.2479 31.1409C91.2159 30.1212 89.8224 29.5512 88.3716 29.5552H84.6961C84.0204 25.688 82.9776 21.894 81.582 18.2246C80.6765 15.9022 79.0886 13.9087 77.0275 12.5068C74.9664 11.1048 72.529 10.3603 70.0363 10.3712H49.9662C47.4732 10.3603 45.0354 11.105 42.9741 12.5073C40.9129 13.9096 39.3249 15.9036 38.4196 18.2264C37.0235 21.895 35.9808 25.6885 35.3057 29.5552H31.6309C30.1801 29.5511 28.7865 30.1212 27.7545 31.1409C20.9454 37.8413 16.6843 47.0334 14.7014 59.1359H14.4189C12.6357 59.1359 10.9255 59.8442 9.66462 61.1052C8.40369 62.3661 7.69531 64.0763 7.69531 65.8595C7.69531 67.6427 8.40369 69.3529 9.66462 70.6138C10.9255 71.8748 12.6357 72.5831 14.4189 72.5831H14.7014C16.6843 84.6856 20.9454 93.8777 27.7545 100.578C28.7548 101.562 30.0938 102.124 31.4963 102.151V106.108C31.4973 107.119 31.8996 108.089 32.6149 108.804C33.3301 109.519 34.2998 109.921 35.3112 109.922H39.1903C40.2017 109.921 41.1714 109.519 41.8867 108.804C42.6019 108.089 43.0042 107.119 43.0053 106.108V102.164H76.997V106.108C76.9981 107.119 77.4004 108.089 78.1157 108.804C78.8309 109.519 79.8007 109.921 80.8121 109.922H84.6912C85.7026 109.921 86.6723 109.519 87.3876 108.804C88.1028 108.089 88.5052 107.119 88.5062 106.108V102.151C89.9087 102.124 91.2477 101.562 92.248 100.578C99.0588 93.8778 103.319 84.6857 105.301 72.5832H105.584C107.367 72.5832 109.077 71.8748 110.338 70.6139C111.599 69.353 112.307 67.6428 112.307 65.8595C112.307 64.0763 111.599 62.3661 110.338 61.1052C109.077 59.8443 107.367 59.1359 105.584 59.1359ZM41.9095 19.5998C42.5412 17.9792 43.6493 16.5882 45.0876 15.6102C46.5259 14.6321 48.2269 14.113 49.9662 14.1213H70.0364C71.7751 14.113 73.4755 14.6318 74.9135 15.6091C76.3516 16.5864 77.4598 17.9765 78.0922 19.5961C79.3213 22.8246 80.2551 26.158 80.8819 29.5552H77.5537C76.9713 26.569 76.1355 23.6379 75.0554 20.7936C74.6614 19.7849 73.971 18.9192 73.0752 18.3105C72.1795 17.7019 71.1203 17.379 70.0374 17.3842H49.9652C48.8822 17.3783 47.8229 17.7011 46.9272 18.3098C46.0315 18.9185 45.3414 19.7846 44.9481 20.7936C43.867 23.6377 43.0307 26.5689 42.4481 29.5552H39.1198C39.7459 26.159 40.6797 22.8268 41.9095 19.5998ZM73.7284 29.5552H46.2734C46.7971 27.0382 47.521 24.5669 48.4381 22.1651C48.5586 21.8591 48.7691 21.5967 49.0417 21.4127C49.3143 21.2287 49.6363 21.1316 49.9652 21.1342H70.0372C70.3665 21.1316 70.6888 21.2289 70.9617 21.4132C71.2345 21.5976 71.4449 21.8604 71.5653 22.1669C72.4816 24.5683 73.205 27.0389 73.7284 29.5552ZM30.3839 33.8143C30.7163 33.487 31.1644 33.3041 31.6308 33.3052H88.3716C88.838 33.3041 89.2861 33.487 89.6185 33.8143C95.7351 39.833 99.6426 48.1313 101.531 59.1359H18.472C20.3607 48.1313 24.2682 39.8329 30.3839 33.8143ZM39.2554 106.108C39.2551 106.125 39.2482 106.141 39.236 106.153C39.2238 106.165 39.2075 106.172 39.1904 106.172L35.2463 106.108V102.164H39.2554V106.108ZM84.7562 106.108C84.7559 106.125 84.749 106.141 84.7368 106.153C84.7246 106.165 84.7083 106.172 84.6912 106.172L80.7471 106.108V102.164H84.7562V106.108ZM89.6185 97.9048C89.2861 98.2321 88.8381 98.415 88.3717 98.4139H31.6309C31.1644 98.415 30.7164 98.2321 30.384 97.9048C24.2683 91.8861 20.3608 83.5878 18.4721 72.5832H101.531C99.6426 83.5878 95.7352 91.8862 89.6185 97.9048ZM105.584 68.8332H14.4189C13.6303 68.8332 12.8739 68.5199 12.3163 67.9622C11.7586 67.4046 11.4453 66.6482 11.4453 65.8595C11.4453 65.0709 11.7586 64.3145 12.3163 63.7569C12.8739 63.1992 13.6303 62.8859 14.4189 62.8859H105.584C106.372 62.8859 107.129 63.1992 107.686 63.7569C108.244 64.3145 108.557 65.0709 108.557 65.8595C108.557 66.6482 108.244 67.4046 107.686 67.9622C107.129 68.5199 106.372 68.8332 105.584 68.8332Z" fill="#DA8F75" />
  </symbol>

  <symbol id="pet-mobile" viewBox="0 0 120 120" fill="none">
      <path d="M41.625 105.001H30.375C29.8777 105.001 29.4008 104.803 29.0492 104.452C28.6975 104.1 28.5 103.623 28.5 103.126C28.5 102.629 28.6975 102.152 29.0492 101.8C29.4008 101.449 29.8777 101.251 30.375 101.251H41.625C42.1223 101.251 42.5992 101.449 42.9508 101.8C43.3025 102.152 43.5 102.629 43.5 103.126C43.5 103.623 43.3025 104.1 42.9508 104.452C42.5992 104.803 42.1223 105.001 41.625 105.001Z" fill="#DA8F75" />
      <path d="M60.7504 7.50053H11.2496C9.18731 7.43102 7.18139 8.18102 5.67056 9.58651C4.15974 10.992 3.26697 12.9386 3.1875 15.0005V105.001C3.26697 107.062 4.15974 109.009 5.67056 110.415C7.18139 111.82 9.18731 112.57 11.2496 112.501H60.7504C62.8127 112.57 64.8186 111.82 66.3294 110.415C67.8403 109.009 68.733 107.062 68.8125 105.001V15.0005C68.733 12.9386 67.8403 10.992 66.3294 9.58651C64.8186 8.18102 62.8127 7.43102 60.7504 7.50053ZM6.9375 26.2505H65.0625V93.7505H6.9375V26.2505ZM11.2496 11.2505H60.7504C61.818 11.1824 62.8694 11.5379 63.6766 12.2399C64.4838 12.9419 64.9818 13.9338 65.0625 15.0005V22.5005H6.9375V15.0005C7.01823 13.9338 7.51619 12.9419 8.32341 12.2399C9.13063 11.5379 10.182 11.1824 11.2496 11.2505ZM60.7504 108.751H11.2496C10.182 108.819 9.13063 108.463 8.32341 107.761C7.51619 107.059 7.01823 106.067 6.9375 105.001V97.5005H65.0625V105.001C64.9818 106.067 64.4838 107.059 63.6766 107.761C62.8694 108.463 61.818 108.819 60.7504 108.751Z" fill="#DA8F75" />
      <path d="M36 18.458C37.0355 18.458 37.875 17.6185 37.875 16.583C37.875 15.5475 37.0355 14.708 36 14.708C34.9645 14.708 34.125 15.5475 34.125 16.583C34.125 17.6185 34.9645 18.458 36 18.458Z" fill="#DA8F75" />
      <path d="M28.5 18.458C29.5355 18.458 30.375 17.6185 30.375 16.583C30.375 15.5475 29.5355 14.708 28.5 14.708C27.4645 14.708 26.625 15.5475 26.625 16.583C26.625 17.6185 27.4645 18.458 28.5 18.458Z" fill="#DA8F75" />
      <path d="M43.5 18.458C44.5355 18.458 45.375 17.6185 45.375 16.583C45.375 15.5475 44.5355 14.708 43.5 14.708C42.4645 14.708 41.625 15.5475 41.625 16.583C41.625 17.6185 42.4645 18.458 43.5 18.458Z" fill="#DA8F75" />
      <path d="M42.7906 53.8491C42.4904 53.8492 42.1908 53.8229 41.8953 53.7704C40.9252 53.5604 40.0227 53.1122 39.2692 52.4663C38.5156 51.8205 37.9346 50.9972 37.5785 50.0708C36.7658 48.1008 36.5478 45.9358 36.9514 43.8433C37.8202 38.9178 41.3469 35.5587 44.9925 36.2069C45.9623 36.4171 46.8646 36.8654 47.618 37.5112C48.3714 38.1571 48.9523 38.9803 49.3083 39.9066C50.121 41.8766 50.3391 44.0415 49.9354 46.134C49.138 50.6521 46.0984 53.8491 42.7906 53.8491ZM44.1181 39.8809C42.819 39.8809 41.1299 41.7431 40.6446 44.4952C40.3747 45.8559 40.5012 47.2655 41.009 48.5564C41.2324 49.0627 41.7295 49.9334 42.5462 50.0771C43.8462 50.3096 45.7276 48.3943 46.2422 45.482C46.512 44.1213 46.3856 42.7117 45.8778 41.4208C45.6544 40.9145 45.1573 40.0438 44.3406 39.9002C44.2672 39.8872 44.1927 39.8808 44.1181 39.8809Z" fill="#DA8F75" />
      <path d="M51.6462 63.343C51.1314 63.3442 50.6204 63.255 50.1364 63.0794C47.2077 62.0137 46.0212 58.1355 47.4347 54.25C48.8492 50.3645 52.2504 48.1553 55.1801 49.2219C55.9614 49.5372 56.6519 50.0422 57.189 50.6914C57.7261 51.3405 58.0929 52.1133 58.2563 52.9399C58.6066 54.6457 58.4767 56.4153 57.8811 58.0517C57.2854 59.6881 56.2474 61.1271 54.8825 62.2087C53.9517 62.9211 52.8181 63.3184 51.6462 63.343ZM53.6695 52.7083C52.9242 52.7083 51.6297 53.6915 50.9586 55.5327C50.2142 57.5798 50.7425 59.3102 51.4182 59.5564C51.6414 59.5923 51.8698 59.5773 52.0864 59.5124C52.303 59.4476 52.5021 59.3346 52.6688 59.182C53.4508 58.556 54.0367 57.7187 54.357 56.7696C54.7213 55.8365 54.8115 54.8176 54.6151 53.8353C54.5866 53.6109 54.5072 53.3961 54.3829 53.2071C54.2587 53.0181 54.0929 52.86 53.8983 52.7449C53.8247 52.7195 53.7473 52.7071 53.6695 52.7083Z" fill="#DA8F75" />
      <path d="M20.3564 63.3433C19.1845 63.3187 18.0509 62.9213 17.12 62.2089C15.7359 61.1462 14.6934 59.7011 14.1217 58.0524C13.4994 56.4217 13.3689 54.6442 13.7463 52.9401C13.9097 52.1135 14.2765 51.3408 14.8136 50.6916C15.3507 50.0424 16.0411 49.5374 16.8225 49.2222C19.7485 48.1519 23.1534 50.3657 24.5669 54.2493C25.9814 58.1357 24.7949 62.0139 21.8661 63.0796C21.3822 63.2552 20.8712 63.3444 20.3564 63.3433ZM18.3331 52.7085C18.2553 52.7073 18.1778 52.7197 18.1042 52.7451C17.9096 52.8603 17.7438 53.0183 17.6196 53.2073C17.4953 53.3963 17.4159 53.6112 17.3874 53.8355C17.191 54.8178 17.2803 55.8358 17.6446 56.7689C17.9649 57.718 18.5517 58.5562 19.3338 59.1822C19.5005 59.3348 19.6997 59.4478 19.9162 59.5126C20.1328 59.5774 20.3612 59.5925 20.5844 59.5566C21.2601 59.3104 21.7883 57.58 21.0431 55.532C20.3729 53.6918 19.0783 52.7085 18.3331 52.7085Z" fill="#DA8F75" />
      <path d="M29.561 53.8497C26.2532 53.8497 23.2137 50.6527 22.4163 46.1346C22.0126 44.0421 22.2306 41.8772 23.0434 39.9072C23.3994 38.9808 23.9802 38.1577 24.7336 37.5118C25.4871 36.866 26.3894 36.4177 27.3592 36.2075C31.0085 35.5703 34.5314 38.9211 35.4003 43.8439C35.8039 45.9364 35.5859 48.1013 34.7731 50.0713C34.4172 50.9977 33.8363 51.8209 33.0829 52.4667C32.3295 53.1126 31.4272 53.5608 30.4573 53.771C30.1614 53.8234 29.8615 53.8497 29.561 53.8497ZM26.1095 45.4827C26.6231 48.395 28.4715 50.3094 29.8064 50.0778C30.6221 49.934 31.1193 49.0634 31.3426 48.5571C31.8504 47.2662 31.9769 45.8566 31.707 44.4959C31.1934 41.5827 29.3157 39.6729 28.0111 39.9008C27.1944 40.0446 26.6973 40.9152 26.4739 41.4215C25.9661 42.7124 25.8396 44.122 26.1095 45.4827Z" fill="#DA8F75" />
      <path d="M25.4543 83.8629C23.9659 83.9422 22.4787 83.6856 21.1029 83.1121C19.7271 82.5385 18.498 81.6627 17.5066 80.5496C16.2704 78.9709 15.6596 76.9918 15.791 74.9909C15.9224 72.99 16.7868 71.1078 18.2189 69.7043C19.0859 68.9598 20.0215 68.2992 21.0131 67.7314C22.1946 67.1391 23.2287 66.2901 24.0398 65.2466C24.5666 64.3365 24.9863 63.3684 25.2905 62.3618C25.7068 60.9859 26.308 59.673 27.0776 58.4589C28.1338 57.1013 29.5094 56.0259 31.0818 55.3285C32.6542 54.6311 34.3747 54.3334 36.09 54.4617C41.6052 54.4617 44.1512 56.6846 45.3158 58.5495C45.9962 59.7266 46.5188 60.988 46.8703 62.3014C47.1452 63.3915 47.5819 64.4343 48.1658 65.395C48.9732 66.5104 50.0601 67.3936 51.3172 67.9557C52.2673 68.4263 53.1549 69.0137 53.9594 69.7043C55.3912 71.1078 56.2555 72.9897 56.387 74.9903C56.5186 76.991 55.9082 78.9699 54.6725 80.5488C51.8984 84.0095 46.8786 84.2979 43.4187 83.4867C42.0042 83.0933 40.6508 82.5064 39.3969 81.7426C38.4046 81.0664 37.275 80.618 36.0891 80.4298C34.9024 80.6181 33.7722 81.0667 32.7794 81.7435C31.5257 82.5071 30.1726 83.094 28.7584 83.4876C27.6748 83.7372 26.5663 83.8631 25.4543 83.8629ZM36.09 58.2117C34.988 58.1228 33.8804 58.29 32.8538 58.7003C31.8271 59.1105 30.9093 59.7527 30.172 60.5765C29.5968 61.5217 29.146 62.5372 28.8308 63.5978C28.4353 64.8859 27.8854 66.1213 27.1929 67.2772C26.0886 68.8051 24.644 70.0551 22.9733 70.9284C22.1812 71.3781 21.4319 71.8994 20.7348 72.4857C20.0019 73.2414 19.5675 74.237 19.512 75.2883C19.4564 76.3395 19.7835 77.3753 20.4327 78.2041C22.0083 80.1697 25.3197 80.4398 27.9061 79.8355C28.9826 79.5137 30.012 79.0514 30.9676 78.4604C32.4941 77.4381 34.2576 76.8249 36.0891 76.6797C37.9199 76.8246 39.6828 77.4375 41.2087 78.4595C42.1645 79.0507 43.1943 79.5131 44.2712 79.8346C46.8557 80.4398 50.1708 80.1697 51.7455 78.2041C52.3945 77.3752 52.7214 76.3395 52.6659 75.2883C52.6103 74.2371 52.1761 73.2415 51.4434 72.4857C50.8596 71.9998 50.2189 71.5866 49.5354 71.2552C47.7616 70.4181 46.2319 69.1403 45.0924 67.5438C44.2799 66.2712 43.672 64.8792 43.2906 63.4184C43.0267 62.4134 42.6386 61.4453 42.1352 60.5363C41.1721 58.9936 39.1378 58.2117 36.09 58.2117Z" fill="#DA8F75" />
  </symbol>

  <symbol id="cat-lover"  viewBox="0 0 120 120" fill="none">
      <path d="M54.4053 58.041C54.0728 58.0416 53.7462 57.9536 53.459 57.7861C53.1718 57.6186 52.9343 57.3776 52.7711 57.0879C52.7063 56.9727 52.6119 56.8767 52.4978 56.81C52.3836 56.7432 52.2538 56.708 52.1215 56.708C51.9893 56.708 51.8594 56.7432 51.7453 56.81C51.6311 56.8767 51.5368 56.9727 51.472 57.0879C51.3509 57.3023 51.1888 57.4907 50.9949 57.6425C50.801 57.7942 50.5791 57.9062 50.3419 57.9722C50.1048 58.0382 49.8569 58.0568 49.6125 58.0269C49.3681 57.9971 49.132 57.9195 48.9176 57.7984C48.7033 57.6773 48.5149 57.5152 48.3631 57.3213C48.2114 57.1274 48.0994 56.9056 48.0334 56.6684C47.9674 56.4312 47.9488 56.1833 47.9786 55.9389C48.0085 55.6946 48.0861 55.4584 48.2072 55.2441C48.5985 54.5503 49.1672 53.9731 49.855 53.5714C50.5428 53.1697 51.325 52.958 52.1215 52.958C52.918 52.958 53.7002 53.1697 54.388 53.5714C55.0758 53.9731 55.6445 54.5503 56.0359 55.2441C56.1968 55.5292 56.2803 55.8515 56.278 56.1789C56.2757 56.5063 56.1878 56.8274 56.0229 57.1103C55.858 57.3931 55.6219 57.6279 55.3381 57.7912C55.0543 57.9544 54.7327 58.0406 54.4053 58.041Z" fill="#DA8F75" />
      <path d="M70.1553 58.041C69.8228 58.0416 69.4962 57.9536 69.209 57.7861C68.9218 57.6186 68.6843 57.3776 68.5211 57.0879C68.4563 56.9727 68.362 56.8767 68.2478 56.81C68.1336 56.7432 68.0038 56.708 67.8715 56.708C67.7393 56.708 67.6094 56.7432 67.4953 56.81C67.3811 56.8767 67.2868 56.9727 67.222 57.0879C67.1009 57.3023 66.9388 57.4907 66.7449 57.6425C66.551 57.7942 66.3291 57.9062 66.0919 57.9722C65.8548 58.0382 65.6069 58.0568 65.3625 58.0269C65.1181 57.9971 64.882 57.9195 64.6677 57.7984C64.2347 57.5539 63.9166 57.1474 63.7834 56.6684C63.6502 56.1893 63.7127 55.677 63.9572 55.2441C64.3485 54.5503 64.9172 53.9731 65.605 53.5714C66.2928 53.1697 67.075 52.958 67.8715 52.958C68.668 52.958 69.4502 53.1697 70.138 53.5714C70.8258 53.9731 71.3945 54.5503 71.7859 55.2441C71.9468 55.5292 72.0303 55.8515 72.028 56.1789C72.0257 56.5063 71.9378 56.8274 71.7729 57.1102C71.608 57.3931 71.3719 57.6279 71.0881 57.7911C70.8043 57.9544 70.4827 58.0406 70.1553 58.041Z" fill="#DA8F75" />
      <path d="M111.504 33.1081C110.743 29.8239 109.246 26.7554 107.126 24.1342C105.006 21.5131 102.319 19.4077 99.266 17.9772C95.418 15.9788 91.1703 14.8699 86.8365 14.7323C82.5027 14.5948 78.1933 15.4321 74.2263 17.1825C68.6444 19.6397 63.7559 23.4378 59.9954 28.2393C56.2883 23.4265 51.3968 19.657 45.7983 17.2987L45.8377 17.2118C41.8636 15.4488 37.544 14.602 33.1985 14.734C28.8529 14.866 24.5927 15.9735 20.733 17.9744C17.68 19.4052 14.992 21.511 12.8718 24.1326C10.7516 26.7543 9.25477 29.8233 8.4942 33.108C1.57098 68.4319 52.7407 101.241 58.5983 104.865C59.0183 105.128 59.5037 105.267 59.999 105.267C60.4944 105.267 60.9798 105.128 61.3998 104.865C67.5103 101.009 73.3682 96.766 78.9376 92.1626C79.0073 92.1135 79.0735 92.0596 79.1357 92.0013C95.4315 78.5371 116.063 56.3699 111.504 33.1081ZM59.999 101.319C54.6333 97.8981 49.4639 94.1784 44.5149 90.1778C45.8932 87.0591 47.7772 84.1896 50.0911 81.6853C56.5396 83.7197 63.4581 83.7199 69.9067 81.6857C72.2209 84.1897 74.105 87.0592 75.4828 90.178C70.5339 94.1785 65.3646 97.8981 59.999 101.319ZM59.9999 42.1067C73.1167 42.1067 83.7881 50.4856 83.7881 60.7853C83.7881 71.0832 73.1167 79.4612 59.9999 79.4612C46.8822 79.4612 36.2099 71.0832 36.2099 60.7853C36.21 50.4857 46.8822 42.1067 59.9999 42.1067ZM37.2693 48.1457V37.0531C37.3435 37.0961 37.4167 37.1419 37.4872 37.1904L45.0663 41.9679C42.0942 43.5067 39.4469 45.6042 37.2693 48.1457ZM82.7289 48.1453C80.5511 45.6036 77.9034 43.5058 74.931 41.9669L82.5925 37.1354C82.6365 37.1045 82.682 37.0757 82.7289 37.0494V48.1453ZM78.4745 87.7049C77.1907 85.0193 75.5658 82.5107 73.64 80.241C81.9294 76.3716 87.5381 69.1085 87.5381 60.7854C87.5292 58.7101 87.1711 56.6511 86.4788 54.6946V36.8242C86.5606 36.1435 86.4412 35.4537 86.1353 34.8402C85.8294 34.2266 85.3504 33.7161 84.7576 33.3717C84.0523 33.1144 83.2936 33.0388 82.5513 33.1517C81.8091 33.2647 81.1072 33.5626 80.5104 34.0181L70.7823 40.151C63.7929 37.7587 56.2064 37.7587 49.217 40.151L39.569 34.0721C38.9657 33.5986 38.2522 33.286 37.4951 33.1635C36.738 33.041 35.9622 33.1126 35.2404 33.3717C34.6476 33.7161 34.1686 34.2266 33.8627 34.8402C33.5568 35.4537 33.4374 36.1435 33.5192 36.8242V54.695C32.8269 56.6513 32.4689 58.7103 32.46 60.7855C32.46 69.1082 38.0686 76.3708 46.3578 80.2405C44.4321 82.5105 42.8074 85.0195 41.5239 87.7053C26.2033 74.7478 8.11162 54.5595 12.1745 33.8297C12.8286 31.1025 14.0925 28.5592 15.8713 26.391C17.65 24.2228 19.8973 22.4861 22.444 21.3117C26.0801 19.4465 30.1073 18.4715 34.1939 18.4671C37.693 18.4567 41.1532 19.2005 44.339 20.6478C49.7015 23.0309 54.3292 26.8048 57.7423 31.5782C57.9955 31.9423 58.3329 32.2398 58.7259 32.4452C59.1188 32.6506 59.5557 32.7579 59.9991 32.7579C60.4425 32.7579 60.8794 32.6506 61.2724 32.4452C61.6653 32.2398 62.0028 31.9423 62.2559 31.5782C65.451 27.046 69.7665 23.4195 74.7811 21.0524L75.7224 20.6211C79.1865 19.1159 82.9413 18.3974 86.7165 18.5172C90.4916 18.637 94.1932 19.5923 97.555 21.3142C100.101 22.4881 102.349 24.2243 104.127 26.392C105.906 28.5598 107.17 31.1027 107.824 33.8294C111.886 54.5591 93.7951 74.7471 78.4745 87.7049Z" fill="#DA8F75" />
      <path d="M55.5873 74.3872C57.2146 74.3907 58.7852 73.7899 59.9946 72.7013C60.7895 73.4136 61.7453 73.9227 62.7799 74.1849C63.8146 74.4471 64.8974 74.4546 65.9356 74.2068C66.9738 73.959 67.9365 73.4632 68.7412 72.762C69.5459 72.0608 70.1687 71.175 70.5562 70.1804C70.6457 69.951 70.6892 69.7062 70.6842 69.46C70.6792 69.2138 70.6257 68.971 70.5268 68.7454C70.428 68.5199 70.2856 68.316 70.108 68.1455C69.9303 67.975 69.7208 67.8411 69.4914 67.7515C69.262 67.6619 69.0172 67.6184 68.771 67.6235C68.5248 67.6285 68.282 67.682 68.0564 67.7808C67.8309 67.8797 67.627 68.022 67.4565 68.1997C67.286 68.3774 67.1521 68.5869 67.0625 68.8163C66.9123 69.2093 66.6764 69.564 66.3719 69.8544C66.0674 70.1448 65.7021 70.3638 65.3024 70.4953C64.9027 70.6269 64.4787 70.6677 64.0613 70.6149C63.6438 70.562 63.2434 70.4168 62.8891 70.1898C63.1734 69.9666 63.436 69.717 63.6732 69.4443C64.5413 68.4169 65.0939 67.1604 65.2644 65.8262C65.2938 65.5403 65.257 65.2515 65.157 64.9821C65.057 64.7128 64.8964 64.47 64.6876 64.2725C64.0578 63.6931 63.3173 63.2472 62.5106 62.9617C61.7039 62.6761 60.8478 62.5567 59.9937 62.6108C59.1391 62.5557 58.2821 62.6742 57.4744 62.9591C56.6668 63.2441 55.9252 63.6896 55.2943 64.2688C55.0861 64.4664 54.9259 64.7091 54.8262 64.9783C54.7266 65.2475 54.69 65.536 54.7194 65.8216C54.8909 67.1577 55.4451 68.4158 56.3151 69.4443C56.5524 69.7172 56.815 69.967 57.0994 70.1902C56.7451 70.4171 56.3447 70.5622 55.9273 70.6149C55.5099 70.6677 55.0861 70.6268 54.6865 70.4952C54.2869 70.3636 53.9216 70.1447 53.6172 69.8542C53.3128 69.5638 53.077 69.2092 52.9268 68.8163C52.8372 68.5869 52.7033 68.3774 52.5328 68.1997C52.3623 68.022 52.1584 67.8797 51.9328 67.7808C51.7073 67.682 51.4645 67.6285 51.2183 67.6235C50.9721 67.6184 50.7273 67.6619 50.4979 67.7515C50.2685 67.8411 50.059 67.975 49.8813 68.1455C49.7037 68.316 49.5613 68.5199 49.4625 68.7454C49.3636 68.971 49.3101 69.2138 49.3051 69.46C49.3 69.7062 49.3436 69.951 49.4331 70.1804C49.9118 71.4227 50.7566 72.4901 51.8556 73.2414C52.9547 73.9927 54.256 74.3923 55.5873 74.3872ZM61.1839 66.4771C61.0836 66.6655 60.9632 66.8426 60.825 67.0053C60.6047 67.2698 60.3177 67.4705 59.9937 67.5867C59.6699 67.4707 59.3831 67.2699 59.1633 67.0053C59.0239 66.842 58.9027 66.6639 58.8017 66.4744C59.5876 66.3123 60.3984 66.3132 61.1839 66.4771Z" fill="#DA8F75" />
  </symbol>

  <symbol id="airplane" viewBox="0 0 24 24" fill="none">
      <path d="M20.5595 3.90961C21.1495 4.49961 21.1495 5.44961 20.5595 6.02961L16.6695 9.91961L18.7895 19.1096L17.3795 20.5296L13.4995 13.0996L9.59945 16.9996L9.95945 19.4696L8.88945 20.5296L7.12945 17.3496L3.93945 15.5796L4.99945 14.4996L7.49945 14.8696L11.3695 10.9996L3.93945 7.08961L5.35945 5.67961L14.5495 7.79961L18.4395 3.90961C18.9995 3.32961 19.9995 3.32961 20.5595 3.90961Z" fill="black" />
  </symbol>

  <symbol id="train" viewBox="0 0 24 24" fill="none">
      <path d="M4 15.5V6.00001C4 5.11667 4.22933 4.41234 4.688 3.88701C5.14667 3.36167 5.75067 2.96167 6.5 2.68701C7.25 2.41234 8.10433 2.22901 9.063 2.13701C10.0217 2.04501 11.0007 1.99934 12 2.00001C13.1 2.00001 14.1377 2.04601 15.113 2.13801C16.0883 2.23001 16.9383 2.41334 17.663 2.68801C18.3877 2.96267 18.9583 3.36267 19.375 3.88801C19.7917 4.41334 20 5.11734 20 6.00001V15.5C20 16.4833 19.6627 17.3127 18.988 17.988C18.3133 18.6633 17.484 19.0007 16.5 19L18 20.5V21H16L14 19H10L8 21H6V20.5L7.5 19C6.51667 19 5.68733 18.6627 5.012 17.988C4.33667 17.3133 3.99933 16.484 4 15.5ZM6 10H11V7.00001H6V10ZM13 10H18V7.00001H13V10ZM8.5 16C8.93333 16 9.29167 15.8583 9.575 15.575C9.85833 15.2917 10 14.9333 10 14.5C10 14.0667 9.85833 13.7083 9.575 13.425C9.29167 13.1417 8.93333 13 8.5 13C8.06667 13 7.70833 13.1417 7.425 13.425C7.14167 13.7083 7 14.0667 7 14.5C7 14.9333 7.14167 15.2917 7.425 15.575C7.70833 15.8583 8.06667 16 8.5 16ZM15.5 16C15.9333 16 16.2917 15.8583 16.575 15.575C16.8583 15.2917 17 14.9333 17 14.5C17 14.0667 16.8583 13.7083 16.575 13.425C16.2917 13.1417 15.9333 13 15.5 13C15.0667 13 14.7083 13.1417 14.425 13.425C14.1417 13.7083 14 14.0667 14 14.5C14 14.9333 14.1417 15.2917 14.425 15.575C14.7083 15.8583 15.0667 16 15.5 16Z" fill="black" />
  </symbol>

  <symbol id="truck" viewBox="0 0 24 24" fill="none">
      <path d="M18 18.5C17.6022 18.5 17.2206 18.342 16.9393 18.0607C16.658 17.7794 16.5 17.3978 16.5 17C16.5 16.6022 16.658 16.2206 16.9393 15.9393C17.2206 15.658 17.6022 15.5 18 15.5C18.3978 15.5 18.7794 15.658 19.0607 15.9393C19.342 16.2206 19.5 16.6022 19.5 17C19.5 17.3978 19.342 17.7794 19.0607 18.0607C18.7794 18.342 18.3978 18.5 18 18.5ZM19.5 9.5L21.46 12H17V9.5M6 18.5C5.60218 18.5 5.22064 18.342 4.93934 18.0607C4.65804 17.7794 4.5 17.3978 4.5 17C4.5 16.6022 4.65804 16.2206 4.93934 15.9393C5.22064 15.658 5.60218 15.5 6 15.5C6.39782 15.5 6.77936 15.658 7.06066 15.9393C7.34196 16.2206 7.5 16.6022 7.5 17C7.5 17.3978 7.34196 17.7794 7.06066 18.0607C6.77936 18.342 6.39782 18.5 6 18.5ZM20 8H17V4H3C1.89 4 1 4.89 1 6V17H3C3 17.7956 3.31607 18.5587 3.87868 19.1213C4.44129 19.6839 5.20435 20 6 20C6.79565 20 7.55871 19.6839 8.12132 19.1213C8.68393 18.5587 9 17.7956 9 17H15C15 17.7956 15.3161 18.5587 15.8787 19.1213C16.4413 19.6839 17.2044 20 18 20C18.7956 20 19.5587 19.6839 20.1213 19.1213C20.6839 18.5587 21 17.7956 21 17H23V12L20 8Z" fill="black" />
  </symbol>

  <symbol id="telegram" viewBox="0 0 32 32" fill="none">
      <circle cx="16" cy="16" r="16" fill="#2F89CE" />
      <path d="M7.47978 16.2989L11.1583 17.6705L12.5922 22.2842C12.6546 22.5959 13.0287 22.6583 13.278 22.4712L15.3355 20.7878C15.5225 20.6008 15.8343 20.6008 16.0837 20.7878L19.7621 23.4688C20.0115 23.6558 20.3856 23.5311 20.4479 23.2194L23.1912 10.1265C23.2535 9.8148 22.9418 9.50307 22.6301 9.62776L7.47978 15.4884C7.1057 15.6131 7.1057 16.1742 7.47978 16.2989ZM12.4052 16.9847L19.6374 12.5581C19.7621 12.4957 19.8868 12.6828 19.7621 12.7451L13.8392 18.294C13.6521 18.481 13.4651 18.7304 13.4651 19.0421L13.278 20.5385C13.278 20.7255 12.9663 20.7878 12.904 20.5385L12.1558 17.7952C11.9688 17.4835 12.0935 17.1094 12.4052 16.9847Z" fill="white" />
  </symbol>

  <symbol id="watsapp" viewBox="0 0 33 32" fill="none">
      <circle cx="16.7969" cy="16" r="16" fill="#48C95F" />
      <path d="M23.1383 9.65019C21.5578 8.07519 19.4505 7.2002 17.2261 7.2002C12.6018 7.2002 8.85541 10.9335 8.85541 15.5419C8.85541 17.0002 9.26517 18.4585 9.96761 19.6835L8.79688 24.0002L13.2457 22.8335C14.4749 23.4752 15.8213 23.8252 17.2261 23.8252C21.8505 23.8252 25.5969 20.0919 25.5969 15.4835C25.5383 13.3252 24.7188 11.2252 23.1383 9.65019ZM21.2652 18.5169C21.0896 18.9835 20.27 19.4502 19.8603 19.5085C19.5091 19.5669 19.0408 19.5669 18.5725 19.4502C18.2798 19.3335 17.87 19.2169 17.4018 18.9835C15.2944 18.1085 13.9481 16.0085 13.831 15.8335C13.7139 15.7169 12.953 14.7252 12.953 13.6752C12.953 12.6252 13.4798 12.1585 13.6554 11.9252C13.831 11.6919 14.0652 11.6919 14.2408 11.6919C14.3579 11.6919 14.5335 11.6919 14.6505 11.6919C14.7676 11.6919 14.9432 11.6335 15.1188 12.0419C15.2944 12.4502 15.7042 13.5002 15.7627 13.5585C15.8213 13.6752 15.8213 13.7919 15.7627 13.9085C15.7042 14.0252 15.6457 14.1419 15.5286 14.2585C15.4115 14.3752 15.2944 14.5502 15.2359 14.6085C15.1188 14.7252 15.0018 14.8419 15.1188 15.0169C15.2359 15.2502 15.6457 15.8919 16.2896 16.4752C17.1091 17.1752 17.753 17.4085 17.9871 17.5252C18.2213 17.6419 18.3383 17.5835 18.4554 17.4669C18.5725 17.3502 18.9822 16.8835 19.0993 16.6502C19.2164 16.4169 19.392 16.4752 19.5676 16.5335C19.7432 16.5919 20.7969 17.1169 20.9725 17.2335C21.2066 17.3502 21.3237 17.4085 21.3822 17.4669C21.4408 17.6419 21.4408 18.0502 21.2652 18.5169Z" fill="white" />
  </symbol>

  <symbol id="viber" viewBox="0 0 33 32" fill="none">
      <circle cx="16.7969" cy="16" r="16" fill="#7C509A" />
      <path d="M21.8 8.43673C18.7508 7.85442 15.5843 7.85442 12.5351 8.43673C11.1864 8.72788 9.48588 10.3583 9.19269 11.6394C8.66494 14.1433 8.66494 16.7055 9.19269 19.2094C9.54452 20.4905 11.245 22.121 12.5351 22.4121C12.5937 22.4121 12.6524 22.4704 12.6524 22.5286V26.1971C12.6524 26.3718 12.8869 26.4883 13.0042 26.3136L14.7634 24.5084C14.7634 24.5084 16.1707 23.0527 16.4053 22.8197C16.4053 22.8197 16.4639 22.7615 16.5225 22.7615C18.2817 22.8197 20.0995 22.645 21.8587 22.3539C23.2073 22.0627 24.9079 20.4323 25.2011 19.1512C25.7288 16.6473 25.7288 14.0851 25.2011 11.5812C24.8492 10.3583 23.1487 8.72788 21.8 8.43673ZM21.8587 19.3841C21.5655 19.9664 21.2136 20.4323 20.6272 20.7234C20.4513 20.7817 20.2754 20.8399 20.0995 20.8981C19.8649 20.8399 19.689 20.7817 19.5131 20.7234C17.6367 19.9664 15.8775 18.9183 14.4702 17.4043C13.7079 16.5308 13.0628 15.5409 12.5351 14.4927C12.3005 13.9687 12.066 13.5028 11.8901 12.9787C11.7142 12.5129 12.0073 12.047 12.3005 11.6977C12.5937 11.3483 12.9456 11.1153 13.356 10.9407C13.6492 10.766 13.9424 10.8824 14.177 11.1153C14.6461 11.6977 15.1152 12.28 15.467 12.9205C15.7016 13.3281 15.6429 13.794 15.2325 14.0851C15.1152 14.1433 15.0566 14.2016 14.9393 14.318C14.8806 14.3763 14.7634 14.4345 14.7047 14.551C14.5874 14.7257 14.5874 14.9003 14.6461 15.075C15.1152 16.4143 15.9948 17.4625 17.3435 18.0448C17.578 18.1613 17.7539 18.2195 18.0471 18.2195C18.4576 18.1613 18.6335 17.6954 18.9267 17.4625C19.2199 17.2296 19.5717 17.2296 19.9236 17.4043C20.2168 17.579 20.51 17.8119 20.8618 18.0448C21.155 18.2777 21.4482 18.4524 21.7414 18.6854C21.9173 18.8018 21.9759 19.093 21.8587 19.3841ZM19.3958 15.0168C19.2785 15.0168 19.3372 15.0168 19.3958 15.0168C19.1613 15.0168 19.1026 14.9003 19.044 14.7257C19.044 14.6092 19.044 14.4345 18.9854 14.318C18.9267 14.0851 18.8094 13.8522 18.5749 13.6775C18.4576 13.6193 18.3403 13.561 18.2231 13.5028C18.0471 13.4446 17.9299 13.4446 17.7539 13.4446C17.578 13.3863 17.5194 13.2699 17.5194 13.0952C17.5194 12.9787 17.6953 12.8623 17.8126 12.8623C18.7508 12.9205 19.4545 13.4446 19.5717 14.551C19.5717 14.6092 19.5717 14.7257 19.5717 14.7839C19.5717 14.9003 19.5131 15.0168 19.3958 15.0168ZM18.8094 12.4547C18.5162 12.3382 18.2231 12.2217 17.8712 12.1635C17.7539 12.1635 17.578 12.1053 17.4608 12.1053C17.2848 12.1053 17.1676 11.9888 17.2262 11.8141C17.2262 11.6394 17.3435 11.523 17.5194 11.5812C18.1058 11.6394 18.6335 11.7559 19.1613 11.9888C20.2168 12.5129 20.8032 13.3863 20.9791 14.551C20.9791 14.6092 20.9791 14.6674 20.9791 14.7257C20.9791 14.8421 20.9791 14.9586 20.9791 15.1333C20.9791 15.1915 20.9791 15.2497 20.9791 15.308C20.9204 15.5409 20.51 15.5991 20.4513 15.308C20.4513 15.2497 20.3927 15.1333 20.3927 15.075C20.3927 14.551 20.2754 14.0269 20.0409 13.561C19.689 13.037 19.2785 12.6876 18.8094 12.4547ZM21.9759 15.9485C21.8 15.9485 21.6827 15.7738 21.6827 15.5991C21.6827 15.2497 21.6241 14.9003 21.5655 14.551C21.3309 12.6876 19.8063 11.1736 17.9885 10.8824C17.6953 10.8242 17.4021 10.8242 17.1676 10.766C16.9916 10.766 16.7571 10.766 16.6984 10.533C16.6398 10.3583 16.8157 10.1837 16.9916 10.1837C17.0503 10.1837 17.1089 10.1837 17.1089 10.1837C17.2262 10.1837 19.5131 10.2419 17.1089 10.1837C19.5717 10.2419 21.6241 11.8723 22.0346 14.318C22.0932 14.7257 22.1519 15.1333 22.1519 15.5991C22.2691 15.7738 22.1518 15.9485 21.9759 15.9485Z" fill="white" />
  </symbol>

  <symbol id="burger" viewBox="0 0 24 24" fill="none">
      <path d="M2 6H22" stroke="white" stroke-width="2" stroke-linecap="round" />
      <path d="M2 12H22" stroke="white" stroke-width="2" stroke-linecap="round" />
      <path d="M2 18H22" stroke="white" stroke-width="2" stroke-linecap="round" />
  </symbol>

</svg>